<svg width="447" height="226" viewBox="0 0 447 226" fill="none" xmlns="http://www.w3.org/2000/svg">
<path d="M5.51727 20.6814V14.6295L5.63865 15.4792L0.731228 8.54289H3.36702L7.11261 13.9185L6.2976 13.8665L9.67904 8.54289H12.2108L7.51145 15.6699L7.77156 14.4908V20.6814H5.51727ZM16.3178 20.8548C15.4045 20.8548 14.5895 20.6525 13.8728 20.2479C13.156 19.8317 12.5896 19.2652 12.1734 18.5485C11.7572 17.8317 11.5491 17.0167 11.5491 16.1034C11.5491 15.1902 11.7572 14.3752 12.1734 13.6584C12.5896 12.9417 13.156 12.381 13.8728 11.9764C14.5895 11.5602 15.4045 11.3521 16.3178 11.3521C17.2195 11.3521 18.0288 11.5602 18.7455 11.9764C19.4623 12.381 20.023 12.9417 20.4276 13.6584C20.8438 14.3752 21.0518 15.1902 21.0518 16.1034C21.0518 17.0167 20.8438 17.8317 20.4276 18.5485C20.023 19.2652 19.4623 19.8317 18.7455 20.2479C18.0288 20.6525 17.2195 20.8548 16.3178 20.8548ZM16.3178 18.9647C16.8149 18.9647 17.2542 18.8375 17.6357 18.5832C18.0288 18.3288 18.3351 17.9878 18.5548 17.5601C18.786 17.1323 18.8958 16.6468 18.8843 16.1034C18.8958 15.5485 18.786 15.0572 18.5548 14.6295C18.3351 14.2017 18.0288 13.8665 17.6357 13.6237C17.2542 13.3694 16.8149 13.2422 16.3178 13.2422C15.8207 13.2422 15.3699 13.3694 14.9652 13.6237C14.5722 13.8665 14.2658 14.2075 14.0462 14.6468C13.8265 15.0746 13.7167 15.5601 13.7167 16.1034C13.7167 16.6468 13.8265 17.1323 14.0462 17.5601C14.2658 17.9878 14.5722 18.3288 14.9652 18.5832C15.3699 18.8375 15.8207 18.9647 16.3178 18.9647ZM26.1331 20.8548C25.4741 20.8548 24.9019 20.7103 24.4163 20.4213C23.9308 20.1207 23.5609 19.6988 23.3065 19.1554C23.0522 18.6005 22.925 17.9416 22.925 17.1786V11.5428H25.058V16.7277C25.058 17.2133 25.1331 17.6294 25.2834 17.9762C25.4337 18.3115 25.6533 18.5716 25.9423 18.7566C26.2313 18.9415 26.5782 19.034 26.9828 19.034C27.2833 19.034 27.555 18.9878 27.7978 18.8953C28.0521 18.7913 28.2718 18.6525 28.4567 18.4791C28.6417 18.2942 28.7862 18.0803 28.8903 17.8375C28.9943 17.5832 29.0463 17.3115 29.0463 17.0225V11.5428H31.1792V20.6814H29.0983L29.0637 18.7739L29.4452 18.5658C29.3064 19.0051 29.0694 19.3982 28.7342 19.745C28.4105 20.0803 28.0232 20.3519 27.5724 20.56C27.1215 20.7565 26.6417 20.8548 26.1331 20.8548ZM33.6791 20.6814V11.5428H35.7774L35.812 14.4561L35.5173 13.7971C35.6444 13.3347 35.8641 12.9185 36.1762 12.5486C36.4883 12.1787 36.8467 11.8897 37.2513 11.6816C37.6675 11.4619 38.101 11.3521 38.5519 11.3521C38.7484 11.3521 38.9334 11.3694 39.1068 11.4041C39.2917 11.4388 39.442 11.4793 39.5576 11.5255L38.9854 13.8665C38.8582 13.7971 38.7022 13.7393 38.5172 13.6931C38.3322 13.6468 38.1473 13.6237 37.9623 13.6237C37.6733 13.6237 37.3958 13.6815 37.1299 13.7971C36.8756 13.9012 36.6502 14.0515 36.4537 14.248C36.2571 14.4445 36.1011 14.6757 35.9855 14.9416C35.8814 15.1959 35.8294 15.485 35.8294 15.8087V20.6814H33.6791ZM48.8842 20.6814V10.6238H45.4161V8.54289H54.7107V10.6238H51.1385V20.6814H48.8842ZM55.5074 20.6814V11.5428H57.6057L57.6404 14.4561L57.3456 13.7971C57.4727 13.3347 57.6924 12.9185 58.0045 12.5486C58.3166 12.1787 58.675 11.8897 59.0796 11.6816C59.4958 11.4619 59.9293 11.3521 60.3802 11.3521C60.5767 11.3521 60.7617 11.3694 60.9351 11.4041C61.1201 11.4388 61.2703 11.4793 61.3859 11.5255L60.8137 13.8665C60.6865 13.7971 60.5305 13.7393 60.3455 13.6931C60.1605 13.6468 59.9756 13.6237 59.7906 13.6237C59.5016 13.6237 59.2241 13.6815 58.9582 13.7971C58.7039 13.9012 58.4785 14.0515 58.282 14.248C58.0854 14.4445 57.9294 14.6757 57.8138 14.9416C57.7097 15.1959 57.6577 15.485 57.6577 15.8087V20.6814H55.5074ZM65.8674 20.8548C65.116 20.8548 64.4339 20.6467 63.8212 20.2305C63.2085 19.8144 62.7172 19.2479 62.3473 18.5311C61.9773 17.8144 61.7924 16.9994 61.7924 16.0861C61.7924 15.1728 61.9773 14.3578 62.3473 13.6411C62.7172 12.9243 63.2201 12.3636 63.8559 11.959C64.4917 11.5544 65.2085 11.3521 66.0062 11.3521C66.4686 11.3521 66.8905 11.4215 67.272 11.5602C67.6535 11.6873 67.9888 11.8723 68.2778 12.1151C68.5668 12.3579 68.8038 12.6353 68.9888 12.9474C69.1853 13.2596 69.3182 13.5948 69.3876 13.9532L68.9194 13.8318V11.5428H71.0697V20.6814H68.9021V18.4965L69.4049 18.4098C69.324 18.7219 69.1737 19.0282 68.9541 19.3288C68.746 19.6178 68.4801 19.8779 68.1564 20.1092C67.8443 20.3288 67.4917 20.508 67.0986 20.6467C66.7171 20.7854 66.3067 20.8548 65.8674 20.8548ZM66.457 18.9647C66.9541 18.9647 67.3934 18.8433 67.7749 18.6005C68.1564 18.3577 68.4512 18.0225 68.6593 17.5947C68.8789 17.1555 68.9888 16.6526 68.9888 16.0861C68.9888 15.5312 68.8789 15.0399 68.6593 14.6121C68.4512 14.1844 68.1564 13.8492 67.7749 13.6064C67.3934 13.3636 66.9541 13.2422 66.457 13.2422C65.9599 13.2422 65.5206 13.3636 65.1391 13.6064C64.7692 13.8492 64.4802 14.1844 64.2721 14.6121C64.064 15.0399 63.96 15.5312 63.96 16.0861C63.96 16.6526 64.064 17.1555 64.2721 17.5947C64.4802 18.0225 64.7692 18.3577 65.1391 18.6005C65.5206 18.8433 65.9599 18.9647 66.457 18.9647ZM73.5425 20.6814V11.5428H75.6234L75.658 13.4156L75.2592 13.6237C75.3748 13.2075 75.6002 12.8318 75.9355 12.4966C76.2707 12.1498 76.6696 11.8723 77.132 11.6642C77.5944 11.4561 78.0684 11.3521 78.5539 11.3521C79.2476 11.3521 79.8256 11.4908 80.288 11.7683C80.762 12.0457 81.1146 12.4619 81.3458 13.0168C81.5886 13.5717 81.7099 14.2653 81.7099 15.0977V20.6814H79.577V15.2538C79.577 14.7913 79.5135 14.4098 79.3863 14.1093C79.2591 13.7971 79.0626 13.5717 78.7967 13.433C78.5308 13.2827 78.2071 13.2133 77.8256 13.2249C77.5135 13.2249 77.2245 13.2769 76.9586 13.381C76.7043 13.4734 76.4788 13.6122 76.2823 13.7971C76.0973 13.9705 75.947 14.1728 75.8314 14.4041C75.7274 14.6353 75.6754 14.8896 75.6754 15.167V20.6814H74.6176C74.4095 20.6814 74.213 20.6814 74.028 20.6814C73.8546 20.6814 73.6928 20.6814 73.5425 20.6814ZM87.1614 20.8548C86.3522 20.8548 85.6239 20.7219 84.9765 20.456C84.3407 20.1785 83.8205 19.7855 83.4158 19.2768L84.8031 18.0803C85.1499 18.4733 85.5372 18.7566 85.9649 18.93C86.3927 19.1034 86.8435 19.1901 87.3175 19.1901C87.514 19.1901 87.6874 19.167 87.8377 19.1207C87.9996 19.0745 88.1383 19.0051 88.2539 18.9126C88.3695 18.8202 88.4562 18.7161 88.514 18.6005C88.5834 18.4733 88.6181 18.3346 88.6181 18.1843C88.6181 17.9069 88.514 17.6872 88.3059 17.5254C88.1903 17.4445 88.0054 17.3578 87.751 17.2653C87.5083 17.1728 87.1903 17.0803 86.7973 16.9878C86.173 16.826 85.6528 16.641 85.2366 16.4329C84.8204 16.2133 84.4967 15.9705 84.2655 15.7046C84.069 15.485 83.9187 15.2364 83.8147 14.959C83.7222 14.6815 83.676 14.3809 83.676 14.0572C83.676 13.6526 83.7627 13.2885 83.9361 12.9648C84.121 12.6295 84.3696 12.3405 84.6817 12.0977C84.9938 11.855 85.358 11.67 85.7742 11.5428C86.1904 11.4157 86.6239 11.3521 87.0747 11.3521C87.5372 11.3521 87.9822 11.4099 88.41 11.5255C88.8493 11.6411 89.2539 11.8087 89.6238 12.0284C90.0053 12.2365 90.329 12.4908 90.5949 12.7914L89.4157 14.0919C89.1961 13.8838 88.9533 13.6989 88.6874 13.537C88.4331 13.3752 88.173 13.248 87.9071 13.1555C87.6412 13.0515 87.3926 12.9995 87.1614 12.9995C86.9418 12.9995 86.7453 13.0226 86.5719 13.0688C86.3984 13.1035 86.2539 13.1613 86.1383 13.2422C86.0227 13.3232 85.9302 13.4272 85.8609 13.5544C85.8031 13.67 85.7742 13.8087 85.7742 13.9705C85.7857 14.1093 85.8204 14.2422 85.8782 14.3694C85.9476 14.485 86.0401 14.5832 86.1557 14.6642C86.2828 14.7451 86.4736 14.8376 86.7279 14.9416C86.9823 15.0457 87.3117 15.1439 87.7163 15.2364C88.2828 15.3867 88.7568 15.5543 89.1383 15.7393C89.5198 15.9243 89.8203 16.1381 90.04 16.3809C90.2596 16.589 90.4157 16.8318 90.5082 17.1092C90.6007 17.3867 90.6469 17.693 90.6469 18.0283C90.6469 18.5716 90.4909 19.0571 90.1787 19.4849C89.8782 19.9126 89.462 20.2479 88.9302 20.4906C88.41 20.7334 87.8204 20.8548 87.1614 20.8548ZM95.9766 20.8548C95.2252 20.8548 94.5431 20.6467 93.9304 20.2305C93.3177 19.8144 92.8264 19.2479 92.4565 18.5311C92.0865 17.8144 91.9015 16.9994 91.9015 16.0861C91.9015 15.1728 92.0865 14.3578 92.4565 13.6411C92.8264 12.9243 93.3293 12.3636 93.9651 11.959C94.6009 11.5544 95.3177 11.3521 96.1153 11.3521C96.5778 11.3521 96.9997 11.4215 97.3812 11.5602C97.7627 11.6873 98.098 11.8723 98.387 12.1151C98.676 12.3579 98.913 12.6353 99.0979 12.9474C99.2945 13.2596 99.4274 13.5948 99.4968 13.9532L99.0286 13.8318V11.5428H101.179V20.6814H99.0112V18.4965L99.5141 18.4098C99.4332 18.7219 99.2829 19.0282 99.0633 19.3288C98.8552 19.6178 98.5893 19.8779 98.2656 20.1092C97.9535 20.3288 97.6009 20.508 97.2078 20.6467C96.8263 20.7854 96.4159 20.8548 95.9766 20.8548ZM96.5662 18.9647C97.0633 18.9647 97.5026 18.8433 97.8841 18.6005C98.2656 18.3577 98.5604 18.0225 98.7685 17.5947C98.9881 17.1555 99.0979 16.6526 99.0979 16.0861C99.0979 15.5312 98.9881 15.0399 98.7685 14.6121C98.5604 14.1844 98.2656 13.8492 97.8841 13.6064C97.5026 13.3636 97.0633 13.2422 96.5662 13.2422C96.0691 13.2422 95.6298 13.3636 95.2483 13.6064C94.8784 13.8492 94.5894 14.1844 94.3813 14.6121C94.1732 15.0399 94.0691 15.5312 94.0691 16.0861C94.0691 16.6526 94.1732 17.1555 94.3813 17.5947C94.5894 18.0225 94.8784 18.3577 95.2483 18.6005C95.6298 18.8433 96.0691 18.9647 96.5662 18.9647ZM107.571 20.8548C106.715 20.8548 105.946 20.6467 105.264 20.2305C104.582 19.8144 104.045 19.2479 103.652 18.5311C103.259 17.8144 103.062 17.0052 103.062 16.1034C103.062 15.2017 103.259 14.3925 103.652 13.6757C104.045 12.959 104.582 12.3925 105.264 11.9764C105.946 11.5602 106.715 11.3521 107.571 11.3521C108.391 11.3521 109.137 11.5082 109.808 11.8203C110.478 12.1324 110.998 12.5659 111.368 13.1208L110.189 14.5428C110.016 14.3 109.796 14.0804 109.53 13.8838C109.264 13.6873 108.981 13.5312 108.68 13.4156C108.38 13.3 108.079 13.2422 107.779 13.2422C107.27 13.2422 106.813 13.3694 106.409 13.6237C106.016 13.8665 105.704 14.2075 105.472 14.6468C105.241 15.0746 105.126 15.5601 105.126 16.1034C105.126 16.6468 105.241 17.1323 105.472 17.5601C105.715 17.9878 106.039 18.3288 106.444 18.5832C106.848 18.8375 107.299 18.9647 107.796 18.9647C108.097 18.9647 108.386 18.9184 108.663 18.8259C108.952 18.7219 109.224 18.5774 109.478 18.3924C109.732 18.2075 109.969 17.9762 110.189 17.6988L111.368 19.1381C110.975 19.6467 110.432 20.0629 109.738 20.3866C109.056 20.6987 108.334 20.8548 107.571 20.8548ZM113.988 20.6814V9.21918H116.121V20.6814H113.988ZM112.184 13.5197V11.5428H118.115V13.5197H112.184ZM119.982 20.6814V11.5428H122.115V20.6814H119.982ZM121.022 9.60068C120.595 9.60068 120.259 9.49663 120.017 9.28854C119.785 9.06889 119.67 8.76254 119.67 8.36949C119.67 7.99955 119.791 7.69898 120.034 7.46777C120.277 7.23656 120.606 7.12095 121.022 7.12095C121.462 7.12095 121.797 7.23078 122.028 7.45043C122.271 7.65852 122.392 7.96487 122.392 8.36949C122.392 8.72786 122.271 9.02265 122.028 9.25386C121.785 9.48507 121.45 9.60068 121.022 9.60068ZM128.999 20.8548C128.085 20.8548 127.27 20.6525 126.554 20.2479C125.837 19.8317 125.27 19.2652 124.854 18.5485C124.438 17.8317 124.23 17.0167 124.23 16.1034C124.23 15.1902 124.438 14.3752 124.854 13.6584C125.27 12.9417 125.837 12.381 126.554 11.9764C127.27 11.5602 128.085 11.3521 128.999 11.3521C129.9 11.3521 130.71 11.5602 131.426 11.9764C132.143 12.381 132.704 12.9417 133.108 13.6584C133.525 14.3752 133.733 15.1902 133.733 16.1034C133.733 17.0167 133.525 17.8317 133.108 18.5485C132.704 19.2652 132.143 19.8317 131.426 20.2479C130.71 20.6525 129.9 20.8548 128.999 20.8548ZM128.999 18.9647C129.496 18.9647 129.935 18.8375 130.317 18.5832C130.71 18.3288 131.016 17.9878 131.236 17.5601C131.467 17.1323 131.577 16.6468 131.565 16.1034C131.577 15.5485 131.467 15.0572 131.236 14.6295C131.016 14.2017 130.71 13.8665 130.317 13.6237C129.935 13.3694 129.496 13.2422 128.999 13.2422C128.502 13.2422 128.051 13.3694 127.646 13.6237C127.253 13.8665 126.947 14.2075 126.727 14.6468C126.507 15.0746 126.398 15.5601 126.398 16.1034C126.398 16.6468 126.507 17.1323 126.727 17.5601C126.947 17.9878 127.253 18.3288 127.646 18.5832C128.051 18.8375 128.502 18.9647 128.999 18.9647ZM135.641 20.6814V11.5428H137.721L137.756 13.4156L137.357 13.6237C137.473 13.2075 137.698 12.8318 138.034 12.4966C138.369 12.1498 138.768 11.8723 139.23 11.6642C139.692 11.4561 140.166 11.3521 140.652 11.3521C141.346 11.3521 141.924 11.4908 142.386 11.7683C142.86 12.0457 143.213 12.4619 143.444 13.0168C143.687 13.5717 143.808 14.2653 143.808 15.0977V20.6814H141.675V15.2538C141.675 14.7913 141.612 14.4098 141.484 14.1093C141.357 13.7971 141.161 13.5717 140.895 13.433C140.629 13.2827 140.305 13.2133 139.924 13.2249C139.612 13.2249 139.323 13.2769 139.057 13.381C138.802 13.4734 138.577 13.6122 138.38 13.7971C138.195 13.9705 138.045 14.1728 137.93 14.4041C137.825 14.6353 137.773 14.8896 137.773 15.167V20.6814H136.716C136.508 20.6814 136.311 20.6814 136.126 20.6814C135.953 20.6814 135.791 20.6814 135.641 20.6814ZM149.259 20.8548C148.45 20.8548 147.722 20.7219 147.075 20.456C146.439 20.1785 145.919 19.7855 145.514 19.2768L146.901 18.0803C147.248 18.4733 147.635 18.7566 148.063 18.93C148.491 19.1034 148.942 19.1901 149.416 19.1901C149.612 19.1901 149.786 19.167 149.936 19.1207C150.098 19.0745 150.236 19.0051 150.352 18.9126C150.468 18.8202 150.554 18.7161 150.612 18.6005C150.681 18.4733 150.716 18.3346 150.716 18.1843C150.716 17.9069 150.612 17.6872 150.404 17.5254C150.288 17.4445 150.103 17.3578 149.849 17.2653C149.606 17.1728 149.288 17.0803 148.895 16.9878C148.271 16.826 147.751 16.641 147.335 16.4329C146.919 16.2133 146.595 15.9705 146.364 15.7046C146.167 15.485 146.017 15.2364 145.913 14.959C145.82 14.6815 145.774 14.3809 145.774 14.0572C145.774 13.6526 145.861 13.2885 146.034 12.9648C146.219 12.6295 146.468 12.3405 146.78 12.0977C147.092 11.855 147.456 11.67 147.872 11.5428C148.288 11.4157 148.722 11.3521 149.173 11.3521C149.635 11.3521 150.08 11.4099 150.508 11.5255C150.947 11.6411 151.352 11.8087 151.722 12.0284C152.103 12.2365 152.427 12.4908 152.693 12.7914L151.514 14.0919C151.294 13.8838 151.051 13.6989 150.785 13.537C150.531 13.3752 150.271 13.248 150.005 13.1555C149.739 13.0515 149.491 12.9995 149.259 12.9995C149.04 12.9995 148.843 13.0226 148.67 13.0688C148.497 13.1035 148.352 13.1613 148.236 13.2422C148.121 13.3232 148.028 13.4272 147.959 13.5544C147.901 13.67 147.872 13.8087 147.872 13.9705C147.884 14.1093 147.918 14.2422 147.976 14.3694C148.046 14.485 148.138 14.5832 148.254 14.6642C148.381 14.7451 148.572 14.8376 148.826 14.9416C149.08 15.0457 149.41 15.1439 149.814 15.2364C150.381 15.3867 150.855 15.5543 151.236 15.7393C151.618 15.9243 151.918 16.1381 152.138 16.3809C152.358 16.589 152.514 16.8318 152.606 17.1092C152.699 17.3867 152.745 17.693 152.745 18.0283C152.745 18.5716 152.589 19.0571 152.277 19.4849C151.976 19.9126 151.56 20.2479 151.028 20.4906C150.508 20.7334 149.918 20.8548 149.259 20.8548Z" fill="white"/>
<g opacity="0.2">
<rect x="35.7768" y="149.392" width="375.427" height="75.8781" rx="9.97091" fill="#1C1C1C"/>
<rect x="35.7768" y="149.392" width="375.427" height="75.8781" rx="9.97091" stroke="#262626" stroke-width="0.867036"/>
<rect x="56.1523" y="168.256" width="38.1496" height="38.1496" rx="19.0748" fill="#CAFF33"/>
<path fill-rule="evenodd" clip-rule="evenodd" d="M78.557 179.257C78.2637 179.573 78.282 180.067 78.5978 180.36L80.7832 182.389L71.8457 182.389C71.4147 182.389 71.0653 182.739 71.0653 183.17C71.0653 183.601 71.4147 183.95 71.8457 183.95L80.7832 183.95L78.5978 185.979C78.282 186.272 78.2637 186.766 78.557 187.082C78.8502 187.398 79.3439 187.416 79.6598 187.123L83.3013 183.741C83.4603 183.594 83.5507 183.387 83.5507 183.17C83.5507 182.953 83.4603 182.745 83.3013 182.598L79.6598 179.216C79.3439 178.923 78.8502 178.941 78.557 179.257ZM71.8973 187.581C71.604 187.265 71.1103 187.247 70.7945 187.54L67.1529 190.921C66.9939 191.069 66.9036 191.276 66.9036 191.493C66.9036 191.71 66.9939 191.917 67.1529 192.065L70.7945 195.446C71.1103 195.74 71.604 195.721 71.8973 195.406C72.1905 195.09 72.1722 194.596 71.8564 194.303L69.671 192.273H78.6086C79.0395 192.273 79.3889 191.924 79.3889 191.493C79.3889 191.062 79.0395 190.713 78.6086 190.713H69.671L71.8564 188.684C72.1722 188.39 72.1905 187.897 71.8973 187.581Z" fill="#1C1C1C"/>
<path d="M106.562 179.831V170.093H103.44V168.906H111.025V170.093H107.779V179.831H106.562ZM111.686 179.831V171.684H112.857L112.888 173.854L112.763 173.557C112.877 173.193 113.06 172.855 113.309 172.543C113.569 172.231 113.876 171.981 114.23 171.794C114.584 171.606 114.974 171.513 115.401 171.513C115.577 171.513 115.744 171.528 115.9 171.56C116.056 171.58 116.186 171.612 116.29 171.653L115.962 172.964C115.827 172.902 115.687 172.86 115.541 172.839C115.406 172.808 115.276 172.792 115.151 172.792C114.797 172.792 114.48 172.855 114.199 172.98C113.918 173.105 113.679 173.281 113.481 173.51C113.283 173.729 113.132 173.984 113.028 174.275C112.924 174.566 112.872 174.879 112.872 175.211V179.831H111.686ZM120.341 179.987C119.634 179.987 118.994 179.805 118.422 179.441C117.85 179.066 117.397 178.562 117.064 177.927C116.731 177.282 116.565 176.554 116.565 175.742C116.565 174.92 116.736 174.192 117.08 173.557C117.423 172.923 117.881 172.423 118.453 172.059C119.036 171.695 119.686 171.513 120.404 171.513C120.83 171.513 121.226 171.575 121.59 171.7C121.954 171.825 122.277 172.002 122.558 172.231C122.849 172.449 123.088 172.709 123.275 173.011C123.473 173.302 123.608 173.62 123.681 173.963L123.338 173.791L123.385 171.684H124.555V179.831H123.369V177.833L123.681 177.631C123.608 177.943 123.468 178.244 123.26 178.536C123.052 178.817 122.797 179.066 122.495 179.285C122.204 179.503 121.871 179.675 121.496 179.8C121.132 179.925 120.747 179.987 120.341 179.987ZM120.607 178.863C121.148 178.863 121.632 178.733 122.058 178.473C122.485 178.203 122.818 177.833 123.057 177.365C123.307 176.887 123.432 176.346 123.432 175.742C123.432 175.139 123.307 174.603 123.057 174.135C122.818 173.666 122.485 173.297 122.058 173.027C121.632 172.756 121.148 172.621 120.607 172.621C120.055 172.621 119.566 172.756 119.14 173.027C118.724 173.297 118.391 173.666 118.141 174.135C117.902 174.603 117.782 175.139 117.782 175.742C117.782 176.335 117.902 176.871 118.141 177.35C118.38 177.818 118.713 178.187 119.14 178.458C119.566 178.728 120.055 178.863 120.607 178.863ZM126.836 179.831V171.684H127.99L128.037 173.386L127.85 173.464C127.954 173.11 128.157 172.787 128.459 172.496C128.76 172.205 129.119 171.971 129.536 171.794C129.962 171.606 130.399 171.513 130.846 171.513C131.45 171.513 131.955 171.632 132.36 171.872C132.766 172.111 133.073 172.48 133.281 172.98C133.489 173.479 133.593 174.114 133.593 174.884V179.831H132.407V174.946C132.407 174.405 132.334 173.963 132.189 173.62C132.053 173.266 131.84 173.006 131.549 172.839C131.257 172.673 130.899 172.595 130.472 172.605C130.118 172.605 129.79 172.668 129.489 172.792C129.187 172.907 128.927 173.068 128.708 173.276C128.49 173.484 128.318 173.724 128.193 173.994C128.069 174.265 128.006 174.556 128.006 174.868V179.831H127.429C127.356 179.831 127.273 179.831 127.179 179.831C127.085 179.831 126.971 179.831 126.836 179.831ZM138.496 179.987C137.799 179.987 137.175 179.857 136.624 179.597C136.072 179.337 135.635 178.993 135.313 178.567L136.14 177.849C136.442 178.213 136.795 178.489 137.201 178.676C137.617 178.863 138.08 178.957 138.59 178.957C138.85 178.957 139.084 178.931 139.292 178.879C139.5 178.817 139.683 178.728 139.839 178.614C139.995 178.499 140.114 178.364 140.198 178.208C140.281 178.052 140.322 177.88 140.322 177.693C140.322 177.35 140.172 177.063 139.87 176.835C139.735 176.741 139.542 176.647 139.292 176.554C139.043 176.45 138.741 176.351 138.387 176.257C137.805 176.091 137.321 175.924 136.936 175.758C136.551 175.581 136.249 175.378 136.031 175.149C135.875 174.962 135.755 174.759 135.672 174.54C135.599 174.322 135.562 174.083 135.562 173.822C135.562 173.49 135.63 173.183 135.765 172.902C135.911 172.621 136.109 172.376 136.358 172.168C136.618 171.95 136.92 171.788 137.264 171.684C137.617 171.57 137.997 171.513 138.403 171.513C138.788 171.513 139.168 171.565 139.542 171.669C139.917 171.773 140.265 171.924 140.588 172.121C140.91 172.319 141.186 172.553 141.415 172.824L140.697 173.604C140.499 173.396 140.281 173.209 140.041 173.042C139.802 172.876 139.547 172.746 139.277 172.652C139.017 172.558 138.746 172.512 138.465 172.512C138.216 172.512 137.981 172.543 137.763 172.605C137.555 172.668 137.373 172.756 137.217 172.87C137.071 172.975 136.957 173.105 136.873 173.261C136.801 173.417 136.764 173.588 136.764 173.776C136.764 173.932 136.795 174.072 136.858 174.197C136.92 174.322 137.009 174.431 137.123 174.525C137.269 174.639 137.472 174.748 137.732 174.853C138.002 174.946 138.335 175.045 138.731 175.149C139.188 175.274 139.573 175.404 139.885 175.539C140.208 175.664 140.473 175.815 140.681 175.992C140.962 176.2 141.16 176.439 141.274 176.71C141.399 176.98 141.462 177.287 141.462 177.631C141.462 178.088 141.332 178.494 141.072 178.848C140.822 179.202 140.473 179.483 140.026 179.691C139.578 179.888 139.069 179.987 138.496 179.987ZM146.479 179.987C145.772 179.987 145.132 179.805 144.56 179.441C143.988 179.066 143.535 178.562 143.202 177.927C142.869 177.282 142.703 176.554 142.703 175.742C142.703 174.92 142.874 174.192 143.218 173.557C143.561 172.923 144.019 172.423 144.591 172.059C145.174 171.695 145.824 171.513 146.542 171.513C146.968 171.513 147.364 171.575 147.728 171.7C148.092 171.825 148.415 172.002 148.696 172.231C148.987 172.449 149.226 172.709 149.414 173.011C149.611 173.302 149.746 173.62 149.819 173.963L149.476 173.791L149.523 171.684H150.693V179.831H149.507V177.833L149.819 177.631C149.746 177.943 149.606 178.244 149.398 178.536C149.19 178.817 148.935 179.066 148.633 179.285C148.342 179.503 148.009 179.675 147.634 179.8C147.27 179.925 146.885 179.987 146.479 179.987ZM146.745 178.863C147.286 178.863 147.77 178.733 148.196 178.473C148.623 178.203 148.956 177.833 149.195 177.365C149.445 176.887 149.57 176.346 149.57 175.742C149.57 175.139 149.445 174.603 149.195 174.135C148.956 173.666 148.623 173.297 148.196 173.027C147.77 172.756 147.286 172.621 146.745 172.621C146.193 172.621 145.704 172.756 145.278 173.027C144.862 173.297 144.529 173.666 144.279 174.135C144.04 174.603 143.92 175.139 143.92 175.742C143.92 176.335 144.04 176.871 144.279 177.35C144.518 177.818 144.851 178.187 145.278 178.458C145.704 178.728 146.193 178.863 146.745 178.863ZM156.407 179.987C155.637 179.987 154.951 179.805 154.347 179.441C153.744 179.066 153.265 178.562 152.911 177.927C152.568 177.282 152.396 176.554 152.396 175.742C152.396 174.931 152.568 174.207 152.911 173.573C153.265 172.928 153.744 172.423 154.347 172.059C154.951 171.695 155.642 171.513 156.423 171.513C157.12 171.513 157.755 171.653 158.327 171.934C158.899 172.205 159.357 172.584 159.7 173.073L159.013 173.916C158.816 173.656 158.576 173.427 158.296 173.229C158.025 173.032 157.728 172.881 157.406 172.777C157.094 172.662 156.782 172.605 156.47 172.605C155.918 172.605 155.424 172.746 154.987 173.027C154.55 173.297 154.201 173.666 153.941 174.135C153.692 174.603 153.567 175.139 153.567 175.742C153.567 176.346 153.692 176.887 153.941 177.365C154.201 177.833 154.55 178.203 154.987 178.473C155.424 178.744 155.913 178.879 156.454 178.879C156.766 178.879 157.073 178.832 157.375 178.739C157.676 178.635 157.963 178.489 158.233 178.302C158.504 178.114 158.753 177.88 158.982 177.599L159.669 178.442C159.315 178.91 158.842 179.285 158.249 179.566C157.656 179.847 157.042 179.987 156.407 179.987ZM162.312 179.831V169.546H163.483V179.831H162.312ZM160.471 172.808V171.684H165.543V172.808H160.471ZM167.292 179.831V171.684H168.463V179.831H167.292ZM167.87 169.921C167.578 169.921 167.355 169.848 167.199 169.702C167.053 169.546 166.98 169.338 166.98 169.078C166.98 168.818 167.058 168.61 167.214 168.454C167.37 168.298 167.589 168.22 167.87 168.22C168.151 168.22 168.369 168.298 168.525 168.454C168.681 168.599 168.759 168.808 168.759 169.078C168.759 169.328 168.681 169.531 168.525 169.687C168.369 169.843 168.151 169.921 167.87 169.921ZM174.624 179.987C173.812 179.987 173.089 179.805 172.455 179.441C171.83 179.077 171.336 178.572 170.972 177.927C170.618 177.282 170.441 176.548 170.441 175.727C170.441 174.915 170.618 174.192 170.972 173.557C171.336 172.923 171.83 172.423 172.455 172.059C173.089 171.695 173.812 171.513 174.624 171.513C175.425 171.513 176.138 171.695 176.762 172.059C177.397 172.423 177.891 172.923 178.245 173.557C178.609 174.192 178.791 174.915 178.791 175.727C178.791 176.548 178.609 177.282 178.245 177.927C177.891 178.572 177.397 179.077 176.762 179.441C176.138 179.805 175.425 179.987 174.624 179.987ZM174.624 178.879C175.196 178.879 175.706 178.744 176.153 178.473C176.601 178.192 176.949 177.818 177.199 177.35C177.449 176.871 177.574 176.33 177.574 175.727C177.574 175.123 177.449 174.587 177.199 174.119C176.949 173.651 176.601 173.287 176.153 173.027C175.706 172.756 175.196 172.621 174.624 172.621C174.052 172.621 173.537 172.756 173.079 173.027C172.632 173.287 172.278 173.656 172.018 174.135C171.768 174.603 171.648 175.133 171.659 175.727C171.648 176.33 171.768 176.871 172.018 177.35C172.278 177.818 172.632 178.192 173.079 178.473C173.537 178.744 174.052 178.879 174.624 178.879ZM180.499 179.831V171.684H181.654L181.7 173.386L181.513 173.464C181.617 173.11 181.82 172.787 182.122 172.496C182.423 172.205 182.782 171.971 183.199 171.794C183.625 171.606 184.062 171.513 184.51 171.513C185.113 171.513 185.618 171.632 186.023 171.872C186.429 172.111 186.736 172.48 186.944 172.98C187.152 173.479 187.256 174.114 187.256 174.884V179.831H186.07V174.946C186.07 174.405 185.997 173.963 185.852 173.62C185.716 173.266 185.503 173.006 185.212 172.839C184.921 172.673 184.562 172.595 184.135 172.605C183.781 172.605 183.454 172.668 183.152 172.792C182.85 172.907 182.59 173.068 182.371 173.276C182.153 173.484 181.981 173.724 181.856 173.994C181.732 174.265 181.669 174.556 181.669 174.868V179.831H181.092C181.019 179.831 180.936 179.831 180.842 179.831C180.748 179.831 180.634 179.831 180.499 179.831Z" fill="white"/>
<path d="M104.672 205.831V193.693H106.544V204.028H112.232V205.831H104.672ZM118.511 206.004C117.575 206.004 116.742 205.808 116.014 205.415C115.297 205.01 114.731 204.461 114.315 203.768C113.91 203.074 113.708 202.276 113.708 201.374C113.708 200.658 113.823 200.005 114.055 199.415C114.286 198.825 114.604 198.317 115.008 197.889C115.425 197.45 115.916 197.114 116.482 196.883C117.06 196.64 117.685 196.519 118.355 196.519C118.945 196.519 119.494 196.635 120.003 196.866C120.511 197.086 120.95 197.392 121.32 197.785C121.702 198.178 121.991 198.646 122.187 199.19C122.396 199.721 122.494 200.305 122.482 200.941L122.465 201.704H115.026L114.627 200.282H120.922L120.661 200.577V200.161C120.627 199.779 120.5 199.438 120.28 199.138C120.06 198.837 119.783 198.6 119.448 198.427C119.112 198.253 118.748 198.166 118.355 198.166C117.731 198.166 117.205 198.288 116.777 198.531C116.349 198.762 116.026 199.109 115.806 199.571C115.586 200.022 115.477 200.583 115.477 201.253C115.477 201.889 115.61 202.444 115.875 202.918C116.141 203.38 116.517 203.739 117.003 203.993C117.488 204.247 118.049 204.374 118.685 204.374C119.135 204.374 119.552 204.299 119.933 204.149C120.326 203.999 120.748 203.727 121.199 203.334L122.101 204.6C121.823 204.877 121.482 205.12 121.078 205.328C120.685 205.536 120.263 205.704 119.812 205.831C119.372 205.947 118.939 206.004 118.511 206.004ZM124.423 205.831V196.727H126.209V198.6L125.897 198.808C126.013 198.403 126.238 198.034 126.574 197.698C126.909 197.351 127.308 197.074 127.77 196.866C128.232 196.646 128.706 196.536 129.192 196.536C129.886 196.536 130.464 196.675 130.926 196.953C131.389 197.218 131.735 197.629 131.967 198.184C132.198 198.739 132.313 199.438 132.313 200.282V205.831H130.527V200.403C130.527 199.883 130.458 199.455 130.319 199.12C130.18 198.773 129.967 198.525 129.678 198.375C129.389 198.213 129.03 198.143 128.602 198.166C128.256 198.166 127.938 198.224 127.649 198.34C127.36 198.444 127.105 198.594 126.886 198.791C126.678 198.987 126.51 199.218 126.383 199.484C126.267 199.739 126.209 200.016 126.209 200.317V205.831H125.325C125.175 205.831 125.024 205.831 124.874 205.831C124.724 205.831 124.574 205.831 124.423 205.831ZM138.985 206.004C138.048 206.004 137.216 205.808 136.488 205.415C135.771 205.01 135.205 204.461 134.788 203.768C134.384 203.074 134.181 202.276 134.181 201.374C134.181 200.658 134.297 200.005 134.528 199.415C134.759 198.825 135.077 198.317 135.482 197.889C135.898 197.45 136.389 197.114 136.956 196.883C137.534 196.64 138.158 196.519 138.829 196.519C139.418 196.519 139.967 196.635 140.476 196.866C140.985 197.086 141.424 197.392 141.794 197.785C142.175 198.178 142.464 198.646 142.661 199.19C142.869 199.721 142.967 200.305 142.956 200.941L142.938 201.704H135.499L135.1 200.282H141.395L141.135 200.577V200.161C141.1 199.779 140.973 199.438 140.754 199.138C140.534 198.837 140.256 198.6 139.921 198.427C139.586 198.253 139.222 198.166 138.829 198.166C138.204 198.166 137.678 198.288 137.251 198.531C136.823 198.762 136.499 199.109 136.28 199.571C136.06 200.022 135.95 200.583 135.95 201.253C135.95 201.889 136.083 202.444 136.349 202.918C136.615 203.38 136.991 203.739 137.476 203.993C137.962 204.247 138.522 204.374 139.158 204.374C139.609 204.374 140.025 204.299 140.407 204.149C140.8 203.999 141.222 203.727 141.673 203.334L142.574 204.6C142.297 204.877 141.956 205.12 141.551 205.328C141.158 205.536 140.736 205.704 140.285 205.831C139.846 205.947 139.413 206.004 138.985 206.004ZM144.897 205.831V196.727H146.683V198.6L146.371 198.808C146.486 198.403 146.712 198.034 147.047 197.698C147.382 197.351 147.781 197.074 148.244 196.866C148.706 196.646 149.18 196.536 149.666 196.536C150.359 196.536 150.937 196.675 151.4 196.953C151.862 197.218 152.209 197.629 152.44 198.184C152.671 198.739 152.787 199.438 152.787 200.282V205.831H151.001V200.403C151.001 199.883 150.931 199.455 150.793 199.12C150.654 198.773 150.44 198.525 150.151 198.375C149.862 198.213 149.504 198.143 149.076 198.166C148.729 198.166 148.411 198.224 148.122 198.34C147.833 198.444 147.579 198.594 147.359 198.791C147.151 198.987 146.984 199.218 146.856 199.484C146.741 199.739 146.683 200.016 146.683 200.317V205.831H145.799C145.648 205.831 145.498 205.831 145.348 205.831C145.197 205.831 145.047 205.831 144.897 205.831ZM160.521 205.831V193.693H165.688C166.382 193.693 167.018 193.866 167.596 194.213C168.185 194.548 168.654 195.01 169 195.6C169.347 196.178 169.521 196.831 169.521 197.56C169.521 198.218 169.347 198.831 169 199.398C168.654 199.964 168.191 200.421 167.613 200.768C167.035 201.103 166.394 201.27 165.688 201.27H162.394V205.831H160.521ZM167.735 205.831L164.648 200.351L166.573 199.918L170.006 205.848L167.735 205.831ZM162.394 199.467H165.862C166.197 199.467 166.498 199.386 166.764 199.224C167.029 199.051 167.238 198.82 167.388 198.531C167.538 198.23 167.613 197.901 167.613 197.542C167.613 197.138 167.515 196.785 167.318 196.484C167.133 196.172 166.868 195.93 166.521 195.756C166.186 195.583 165.804 195.496 165.376 195.496H162.394V199.467ZM175.881 206.004C174.991 206.004 174.193 205.802 173.488 205.398C172.794 204.981 172.245 204.421 171.841 203.715C171.436 202.999 171.234 202.184 171.234 201.27C171.234 200.357 171.436 199.548 171.841 198.843C172.245 198.126 172.794 197.565 173.488 197.161C174.193 196.745 174.991 196.536 175.881 196.536C176.76 196.536 177.546 196.745 178.239 197.161C178.944 197.565 179.499 198.126 179.904 198.843C180.309 199.548 180.511 200.357 180.511 201.27C180.511 202.184 180.309 202.999 179.904 203.715C179.499 204.421 178.944 204.981 178.239 205.398C177.546 205.802 176.76 206.004 175.881 206.004ZM175.881 204.374C176.424 204.374 176.91 204.241 177.338 203.976C177.765 203.698 178.101 203.328 178.343 202.866C178.586 202.392 178.702 201.86 178.69 201.27C178.702 200.669 178.586 200.138 178.343 199.675C178.101 199.201 177.765 198.831 177.338 198.565C176.91 198.299 176.424 198.166 175.881 198.166C175.338 198.166 174.846 198.305 174.407 198.583C173.979 198.849 173.644 199.218 173.401 199.692C173.158 200.155 173.043 200.681 173.054 201.27C173.043 201.86 173.158 202.392 173.401 202.866C173.644 203.328 173.979 203.698 174.407 203.976C174.846 204.241 175.338 204.374 175.881 204.374ZM183.644 209.819L185.483 205.571L185.5 206.993L180.957 196.727H183.038L185.881 203.421C185.939 203.536 186.009 203.715 186.089 203.958C186.17 204.189 186.24 204.421 186.298 204.652L185.847 204.756C185.939 204.513 186.026 204.27 186.107 204.028C186.199 203.785 186.286 203.542 186.367 203.299L188.743 196.727H190.858L187.113 205.831L185.569 209.819H183.644Z" fill="white"/>
<path d="M314.91 199.107V196.652H321.34V199.107H314.91ZM329 204.039C327.751 204.039 326.655 203.81 325.712 203.352C324.768 202.895 323.964 202.222 323.298 201.334L324.9 199.232C325.608 200.148 326.294 200.786 326.96 201.147C327.626 201.507 328.375 201.688 329.208 201.688C329.679 201.688 330.109 201.618 330.498 201.48C330.886 201.327 331.191 201.126 331.413 200.876C331.635 200.613 331.746 200.314 331.746 199.981C331.746 199.746 331.698 199.531 331.601 199.336C331.517 199.128 331.386 198.948 331.205 198.795C331.025 198.629 330.803 198.476 330.539 198.338C330.276 198.199 329.978 198.081 329.645 197.984C329.312 197.887 328.944 197.796 328.542 197.713C327.515 197.505 326.662 197.207 325.982 196.818C325.316 196.416 324.817 195.917 324.484 195.32C324.151 194.724 323.985 194.023 323.985 193.219C323.985 192.608 324.116 192.046 324.38 191.533C324.657 191.02 325.032 190.576 325.504 190.201C325.975 189.827 326.523 189.535 327.148 189.327C327.772 189.119 328.445 189.015 329.166 189.015C330.304 189.015 331.309 189.223 332.183 189.639C333.057 190.042 333.779 190.645 334.347 191.45L332.808 193.323C332.336 192.684 331.788 192.206 331.164 191.887C330.553 191.554 329.887 191.387 329.166 191.387C328.667 191.387 328.23 191.457 327.855 191.595C327.494 191.734 327.21 191.935 327.002 192.199C326.794 192.449 326.69 192.754 326.69 193.114C326.69 193.392 326.752 193.642 326.877 193.864C327.002 194.072 327.175 194.259 327.397 194.425C327.633 194.592 327.931 194.738 328.292 194.862C328.653 194.987 329.062 195.098 329.52 195.195C330.283 195.348 330.969 195.556 331.58 195.82C332.19 196.069 332.71 196.375 333.141 196.735C333.571 197.082 333.897 197.484 334.119 197.942C334.341 198.386 334.451 198.885 334.451 199.44C334.451 200.398 334.223 201.223 333.765 201.917C333.321 202.596 332.69 203.124 331.871 203.498C331.053 203.859 330.096 204.039 329 204.039ZM327.751 205.725L327.834 196.194L329.728 196.881L329.811 205.725H327.751ZM330.456 196.881L328.563 196.194L328.479 187.517H330.539L330.456 196.881ZM341.463 203.831C340.727 203.831 340.041 203.699 339.403 203.436C338.778 203.172 338.23 202.811 337.759 202.354C337.301 201.882 336.94 201.334 336.677 200.71C336.413 200.085 336.281 199.399 336.281 198.65C336.281 198.233 336.33 197.79 336.427 197.318C336.538 196.846 336.697 196.347 336.905 195.82C337.127 195.279 337.384 194.717 337.675 194.134C337.967 193.551 338.307 192.941 338.695 192.303L340.63 189.015H343.211L343.294 189.223L340.818 193.302C340.415 193.968 340.061 194.599 339.756 195.195C339.451 195.778 339.188 196.34 338.966 196.881C338.757 197.408 338.584 197.921 338.445 198.421L337.883 196.527C338.092 196.083 338.348 195.681 338.653 195.32C338.959 194.96 339.299 194.654 339.673 194.405C340.048 194.155 340.436 193.968 340.838 193.843C341.255 193.718 341.678 193.656 342.108 193.656C342.912 193.656 343.654 193.877 344.334 194.321C345.014 194.751 345.555 195.327 345.957 196.049C346.374 196.77 346.582 197.561 346.582 198.421C346.582 199.461 346.36 200.391 345.916 201.209C345.486 202.014 344.882 202.652 344.105 203.124C343.328 203.595 342.448 203.831 341.463 203.831ZM341.483 201.459C341.983 201.459 342.427 201.341 342.815 201.105C343.218 200.869 343.53 200.543 343.752 200.127C343.974 199.697 344.085 199.205 344.085 198.65C344.085 198.178 343.967 197.741 343.731 197.339C343.509 196.923 343.204 196.59 342.815 196.34C342.427 196.076 341.99 195.944 341.504 195.944C340.977 195.944 340.505 196.069 340.089 196.319C339.687 196.555 339.368 196.881 339.132 197.297C338.91 197.699 338.799 198.15 338.799 198.65C338.799 199.177 338.91 199.655 339.132 200.085C339.368 200.502 339.687 200.835 340.089 201.084C340.492 201.334 340.956 201.459 341.483 201.459ZM353.333 203.893C352.403 203.893 351.55 203.706 350.773 203.332C350.01 202.943 349.4 202.43 348.942 201.792C348.484 201.14 348.255 200.418 348.255 199.628C348.255 199.156 348.318 198.719 348.443 198.317C348.581 197.914 348.775 197.554 349.025 197.235C349.289 196.916 349.601 196.631 349.962 196.381C350.336 196.118 350.759 195.889 351.231 195.695L351.064 196.277C350.704 196.125 350.371 195.944 350.066 195.736C349.774 195.528 349.518 195.292 349.296 195.029C349.088 194.751 348.928 194.46 348.817 194.155C348.706 193.836 348.651 193.503 348.651 193.156C348.651 192.407 348.859 191.734 349.275 191.138C349.705 190.541 350.274 190.069 350.981 189.723C351.689 189.362 352.473 189.182 353.333 189.182C354.207 189.182 354.997 189.362 355.705 189.723C356.412 190.069 356.974 190.541 357.39 191.138C357.82 191.734 358.035 192.407 358.035 193.156C358.035 193.503 357.98 193.836 357.869 194.155C357.758 194.46 357.598 194.745 357.39 195.008C357.196 195.258 356.946 195.494 356.641 195.716C356.336 195.924 355.982 196.111 355.58 196.277L355.476 195.778C355.92 195.931 356.322 196.132 356.683 196.381C357.044 196.631 357.356 196.923 357.619 197.255C357.883 197.588 358.084 197.956 358.223 198.358C358.375 198.761 358.452 199.184 358.452 199.628C358.452 200.432 358.223 201.161 357.765 201.813C357.307 202.451 356.69 202.957 355.913 203.332C355.15 203.706 354.29 203.893 353.333 203.893ZM353.333 201.563C353.804 201.563 354.227 201.473 354.602 201.292C354.977 201.112 355.268 200.869 355.476 200.564C355.698 200.259 355.809 199.905 355.809 199.503C355.809 199.073 355.698 198.698 355.476 198.379C355.268 198.046 354.977 197.79 354.602 197.609C354.227 197.415 353.804 197.318 353.333 197.318C352.875 197.318 352.459 197.415 352.084 197.609C351.723 197.79 351.432 198.046 351.21 198.379C350.988 198.698 350.877 199.073 350.877 199.503C350.877 199.891 350.988 200.238 351.21 200.543C351.432 200.848 351.723 201.098 352.084 201.292C352.459 201.473 352.875 201.563 353.333 201.563ZM353.333 195.029C353.749 195.029 354.116 194.953 354.435 194.8C354.768 194.647 355.025 194.439 355.205 194.176C355.386 193.912 355.476 193.607 355.476 193.26C355.476 192.899 355.386 192.587 355.205 192.324C355.025 192.046 354.768 191.831 354.435 191.679C354.116 191.512 353.749 191.429 353.333 191.429C352.93 191.429 352.563 191.512 352.23 191.679C351.911 191.831 351.661 192.046 351.481 192.324C351.3 192.587 351.21 192.899 351.21 193.26C351.21 193.607 351.3 193.912 351.481 194.176C351.661 194.439 351.911 194.647 352.23 194.8C352.563 194.953 352.93 195.029 353.333 195.029ZM361.925 204.06C361.426 204.06 361.038 203.914 360.76 203.623C360.496 203.332 360.365 202.922 360.365 202.395C360.365 201.91 360.503 201.514 360.781 201.209C361.072 200.89 361.454 200.731 361.925 200.731C362.425 200.731 362.806 200.876 363.07 201.168C363.347 201.445 363.486 201.854 363.486 202.395C363.486 202.881 363.34 203.283 363.049 203.602C362.772 203.907 362.397 204.06 361.925 204.06ZM370.962 204.039C369.783 204.039 368.77 203.741 367.924 203.144C367.092 202.534 366.447 201.674 365.989 200.564C365.545 199.44 365.323 198.102 365.323 196.548C365.323 194.994 365.545 193.662 365.989 192.553C366.447 191.429 367.092 190.569 367.924 189.972C368.77 189.362 369.783 189.057 370.962 189.057C372.141 189.057 373.154 189.362 374 189.972C374.847 190.569 375.492 191.429 375.936 192.553C376.393 193.662 376.622 194.994 376.622 196.548C376.622 198.102 376.393 199.44 375.936 200.564C375.492 201.674 374.847 202.534 374 203.144C373.154 203.741 372.141 204.039 370.962 204.039ZM370.962 201.667C371.933 201.667 372.682 201.223 373.21 200.335C373.751 199.433 374.021 198.171 374.021 196.548C374.021 194.911 373.751 193.642 373.21 192.74C372.682 191.838 371.933 191.387 370.962 191.387C369.991 191.387 369.235 191.838 368.694 192.74C368.167 193.642 367.903 194.911 367.903 196.548C367.903 198.171 368.167 199.433 368.694 200.335C369.235 201.223 369.991 201.667 370.962 201.667ZM384.09 204.039C382.911 204.039 381.898 203.741 381.052 203.144C380.219 202.534 379.574 201.674 379.116 200.564C378.673 199.44 378.451 198.102 378.451 196.548C378.451 194.994 378.673 193.662 379.116 192.553C379.574 191.429 380.219 190.569 381.052 189.972C381.898 189.362 382.911 189.057 384.09 189.057C385.269 189.057 386.282 189.362 387.128 189.972C387.974 190.569 388.619 191.429 389.063 192.553C389.521 193.662 389.75 194.994 389.75 196.548C389.75 198.102 389.521 199.44 389.063 200.564C388.619 201.674 387.974 202.534 387.128 203.144C386.282 203.741 385.269 204.039 384.09 204.039ZM384.09 201.667C385.061 201.667 385.81 201.223 386.337 200.335C386.878 199.433 387.149 198.171 387.149 196.548C387.149 194.911 386.878 193.642 386.337 192.74C385.81 191.838 385.061 191.387 384.09 191.387C383.119 191.387 382.363 191.838 381.822 192.74C381.294 193.642 381.031 194.911 381.031 196.548C381.031 198.171 381.294 199.433 381.822 200.335C382.363 201.223 383.119 201.667 384.09 201.667Z" fill="white"/>
</g>
<g opacity="0.5">
<rect x="18.436" y="96.9239" width="410.108" height="75.8781" rx="9.97091" fill="#1C1C1C"/>
<rect x="18.436" y="96.9239" width="410.108" height="75.8781" rx="9.97091" stroke="#262626" stroke-width="0.867036"/>
<rect x="38.811" y="115.788" width="38.1496" height="38.1496" rx="19.0748" fill="#CAFF33"/>
<path fill-rule="evenodd" clip-rule="evenodd" d="M61.2156 126.789C60.9224 127.105 60.9407 127.598 61.2565 127.892L63.4419 129.921L54.5044 129.921C54.0734 129.921 53.724 130.27 53.724 130.701C53.724 131.132 54.0734 131.482 54.5044 131.482L63.4419 131.482L61.2565 133.511C60.9407 133.804 60.9224 134.298 61.2156 134.614C61.5089 134.929 62.0026 134.948 62.3184 134.654L65.96 131.273C66.119 131.125 66.2093 130.918 66.2093 130.701C66.2093 130.484 66.119 130.277 65.96 130.129L62.3184 126.748C62.0026 126.455 61.5089 126.473 61.2156 126.789ZM54.556 135.112C54.2627 134.797 53.769 134.778 53.4532 135.071L49.8116 138.453C49.6526 138.601 49.5623 138.808 49.5623 139.025C49.5623 139.242 49.6526 139.449 49.8116 139.597L53.4532 142.978C53.769 143.271 54.2627 143.253 54.556 142.937C54.8492 142.621 54.8309 142.128 54.5151 141.834L52.3297 139.805H61.2672C61.6982 139.805 62.0476 139.456 62.0476 139.025C62.0476 138.594 61.6982 138.244 61.2672 138.244H52.3297L54.5151 136.215C54.8309 135.922 54.8492 135.428 54.556 135.112Z" fill="#1C1C1C"/>
<path d="M89.2206 127.363V117.625H86.0993V116.439H93.6841V117.625H90.438V127.363H89.2206ZM94.3451 127.363V119.216H95.5156L95.5468 121.386L95.422 121.089C95.5364 120.725 95.7185 120.387 95.9682 120.075C96.2283 119.763 96.5352 119.513 96.889 119.326C97.2427 119.138 97.6329 119.045 98.0595 119.045C98.2364 119.045 98.4028 119.06 98.5589 119.092C98.715 119.112 98.845 119.144 98.9491 119.185L98.6213 120.496C98.4861 120.434 98.3456 120.392 98.1999 120.371C98.0647 120.34 97.9346 120.325 97.8098 120.325C97.456 120.325 97.1387 120.387 96.8578 120.512C96.5769 120.637 96.3375 120.814 96.1399 121.042C95.9422 121.261 95.7913 121.516 95.6873 121.807C95.5832 122.099 95.5312 122.411 95.5312 122.744V127.363H94.3451ZM103 127.519C102.293 127.519 101.653 127.337 101.081 126.973C100.508 126.598 100.056 126.094 99.7229 125.459C99.39 124.814 99.2235 124.086 99.2235 123.274C99.2235 122.452 99.3952 121.724 99.7385 121.089C100.082 120.455 100.54 119.955 101.112 119.591C101.695 119.227 102.345 119.045 103.063 119.045C103.489 119.045 103.885 119.107 104.249 119.232C104.613 119.357 104.936 119.534 105.216 119.763C105.508 119.981 105.747 120.241 105.934 120.543C106.132 120.834 106.267 121.152 106.34 121.495L105.997 121.323L106.044 119.216H107.214V127.363H106.028V125.366L106.34 125.163C106.267 125.475 106.127 125.776 105.919 126.068C105.711 126.349 105.456 126.598 105.154 126.817C104.863 127.035 104.53 127.207 104.155 127.332C103.791 127.457 103.406 127.519 103 127.519ZM103.266 126.396C103.807 126.396 104.29 126.265 104.717 126.005C105.144 125.735 105.477 125.366 105.716 124.897C105.966 124.419 106.09 123.878 106.09 123.274C106.09 122.671 105.966 122.135 105.716 121.667C105.477 121.199 105.144 120.829 104.717 120.559C104.29 120.288 103.807 120.153 103.266 120.153C102.714 120.153 102.225 120.288 101.799 120.559C101.382 120.829 101.049 121.199 100.8 121.667C100.56 122.135 100.441 122.671 100.441 123.274C100.441 123.867 100.56 124.403 100.8 124.882C101.039 125.35 101.372 125.719 101.799 125.99C102.225 126.26 102.714 126.396 103.266 126.396ZM109.495 127.363V119.216H110.649L110.696 120.918L110.509 120.996C110.613 120.642 110.816 120.319 111.118 120.028C111.419 119.737 111.778 119.503 112.194 119.326C112.621 119.138 113.058 119.045 113.505 119.045C114.109 119.045 114.614 119.164 115.019 119.404C115.425 119.643 115.732 120.012 115.94 120.512C116.148 121.011 116.252 121.646 116.252 122.416V127.363H115.066V122.478C115.066 121.937 114.993 121.495 114.848 121.152C114.712 120.798 114.499 120.538 114.208 120.371C113.916 120.205 113.557 120.127 113.131 120.137C112.777 120.137 112.449 120.2 112.148 120.325C111.846 120.439 111.586 120.6 111.367 120.808C111.149 121.016 110.977 121.256 110.852 121.526C110.727 121.797 110.665 122.088 110.665 122.4V127.363H110.088C110.015 127.363 109.932 127.363 109.838 127.363C109.744 127.363 109.63 127.363 109.495 127.363ZM121.155 127.519C120.458 127.519 119.834 127.389 119.283 127.129C118.731 126.869 118.294 126.526 117.972 126.099L118.799 125.381C119.1 125.745 119.454 126.021 119.86 126.208C120.276 126.396 120.739 126.489 121.249 126.489C121.509 126.489 121.743 126.463 121.951 126.411C122.159 126.349 122.341 126.26 122.498 126.146C122.654 126.031 122.773 125.896 122.856 125.74C122.94 125.584 122.981 125.412 122.981 125.225C122.981 124.882 122.83 124.596 122.529 124.367C122.393 124.273 122.201 124.179 121.951 124.086C121.702 123.982 121.4 123.883 121.046 123.789C120.463 123.623 119.98 123.456 119.595 123.29C119.21 123.113 118.908 122.91 118.69 122.681C118.533 122.494 118.414 122.291 118.331 122.073C118.258 121.854 118.221 121.615 118.221 121.355C118.221 121.022 118.289 120.715 118.424 120.434C118.57 120.153 118.768 119.908 119.017 119.7C119.277 119.482 119.579 119.321 119.922 119.216C120.276 119.102 120.656 119.045 121.062 119.045C121.447 119.045 121.826 119.097 122.201 119.201C122.576 119.305 122.924 119.456 123.247 119.653C123.569 119.851 123.845 120.085 124.074 120.356L123.356 121.136C123.158 120.928 122.94 120.741 122.7 120.574C122.461 120.408 122.206 120.278 121.936 120.184C121.676 120.09 121.405 120.044 121.124 120.044C120.874 120.044 120.64 120.075 120.422 120.137C120.214 120.2 120.032 120.288 119.876 120.403C119.73 120.507 119.616 120.637 119.532 120.793C119.459 120.949 119.423 121.12 119.423 121.308C119.423 121.464 119.454 121.604 119.517 121.729C119.579 121.854 119.668 121.963 119.782 122.057C119.928 122.171 120.131 122.281 120.391 122.385C120.661 122.478 120.994 122.577 121.389 122.681C121.847 122.806 122.232 122.936 122.544 123.071C122.867 123.196 123.132 123.347 123.34 123.524C123.621 123.732 123.819 123.971 123.933 124.242C124.058 124.512 124.121 124.819 124.121 125.163C124.121 125.62 123.991 126.026 123.73 126.38C123.481 126.734 123.132 127.015 122.685 127.223C122.237 127.42 121.728 127.519 121.155 127.519ZM129.138 127.519C128.431 127.519 127.791 127.337 127.219 126.973C126.647 126.598 126.194 126.094 125.861 125.459C125.528 124.814 125.362 124.086 125.362 123.274C125.362 122.452 125.533 121.724 125.877 121.089C126.22 120.455 126.678 119.955 127.25 119.591C127.833 119.227 128.483 119.045 129.201 119.045C129.627 119.045 130.023 119.107 130.387 119.232C130.751 119.357 131.074 119.534 131.355 119.763C131.646 119.981 131.885 120.241 132.072 120.543C132.27 120.834 132.405 121.152 132.478 121.495L132.135 121.323L132.182 119.216H133.352V127.363H132.166V125.366L132.478 125.163C132.405 125.475 132.265 125.776 132.057 126.068C131.849 126.349 131.594 126.598 131.292 126.817C131.001 127.035 130.668 127.207 130.293 127.332C129.929 127.457 129.544 127.519 129.138 127.519ZM129.404 126.396C129.945 126.396 130.429 126.265 130.855 126.005C131.282 125.735 131.615 125.366 131.854 124.897C132.104 124.419 132.229 123.878 132.229 123.274C132.229 122.671 132.104 122.135 131.854 121.667C131.615 121.199 131.282 120.829 130.855 120.559C130.429 120.288 129.945 120.153 129.404 120.153C128.852 120.153 128.363 120.288 127.937 120.559C127.521 120.829 127.188 121.199 126.938 121.667C126.699 122.135 126.579 122.671 126.579 123.274C126.579 123.867 126.699 124.403 126.938 124.882C127.177 125.35 127.51 125.719 127.937 125.99C128.363 126.26 128.852 126.396 129.404 126.396ZM139.066 127.519C138.296 127.519 137.609 127.337 137.006 126.973C136.403 126.598 135.924 126.094 135.57 125.459C135.227 124.814 135.055 124.086 135.055 123.274C135.055 122.463 135.227 121.74 135.57 121.105C135.924 120.46 136.403 119.955 137.006 119.591C137.609 119.227 138.301 119.045 139.082 119.045C139.779 119.045 140.413 119.185 140.986 119.466C141.558 119.737 142.016 120.116 142.359 120.605L141.672 121.448C141.475 121.188 141.235 120.959 140.954 120.762C140.684 120.564 140.387 120.413 140.065 120.309C139.753 120.195 139.441 120.137 139.128 120.137C138.577 120.137 138.083 120.278 137.646 120.559C137.209 120.829 136.86 121.199 136.6 121.667C136.351 122.135 136.226 122.671 136.226 123.274C136.226 123.878 136.351 124.419 136.6 124.897C136.86 125.366 137.209 125.735 137.646 126.005C138.083 126.276 138.572 126.411 139.113 126.411C139.425 126.411 139.732 126.364 140.034 126.271C140.335 126.167 140.622 126.021 140.892 125.834C141.163 125.646 141.412 125.412 141.641 125.131L142.328 125.974C141.974 126.442 141.501 126.817 140.908 127.098C140.315 127.379 139.701 127.519 139.066 127.519ZM144.971 127.363V117.078H146.142V127.363H144.971ZM143.13 120.34V119.216H148.202V120.34H143.13ZM149.951 127.363V119.216H151.122V127.363H149.951ZM150.529 117.453C150.237 117.453 150.014 117.38 149.857 117.234C149.712 117.078 149.639 116.87 149.639 116.61C149.639 116.35 149.717 116.142 149.873 115.986C150.029 115.83 150.248 115.752 150.529 115.752C150.809 115.752 151.028 115.83 151.184 115.986C151.34 116.132 151.418 116.34 151.418 116.61C151.418 116.86 151.34 117.063 151.184 117.219C151.028 117.375 150.809 117.453 150.529 117.453ZM157.283 127.519C156.471 127.519 155.748 127.337 155.114 126.973C154.489 126.609 153.995 126.104 153.631 125.459C153.277 124.814 153.1 124.081 153.1 123.259C153.1 122.447 153.277 121.724 153.631 121.089C153.995 120.455 154.489 119.955 155.114 119.591C155.748 119.227 156.471 119.045 157.283 119.045C158.084 119.045 158.797 119.227 159.421 119.591C160.056 119.955 160.55 120.455 160.904 121.089C161.268 121.724 161.45 122.447 161.45 123.259C161.45 124.081 161.268 124.814 160.904 125.459C160.55 126.104 160.056 126.609 159.421 126.973C158.797 127.337 158.084 127.519 157.283 127.519ZM157.283 126.411C157.855 126.411 158.365 126.276 158.812 126.005C159.26 125.724 159.608 125.35 159.858 124.882C160.108 124.403 160.233 123.862 160.233 123.259C160.233 122.655 160.108 122.119 159.858 121.651C159.608 121.183 159.26 120.819 158.812 120.559C158.365 120.288 157.855 120.153 157.283 120.153C156.711 120.153 156.196 120.288 155.738 120.559C155.29 120.819 154.937 121.188 154.677 121.667C154.427 122.135 154.307 122.666 154.318 123.259C154.307 123.862 154.427 124.403 154.677 124.882C154.937 125.35 155.29 125.724 155.738 126.005C156.196 126.276 156.711 126.411 157.283 126.411ZM163.158 127.363V119.216H164.313L164.359 120.918L164.172 120.996C164.276 120.642 164.479 120.319 164.781 120.028C165.082 119.737 165.441 119.503 165.858 119.326C166.284 119.138 166.721 119.045 167.169 119.045C167.772 119.045 168.277 119.164 168.682 119.404C169.088 119.643 169.395 120.012 169.603 120.512C169.811 121.011 169.915 121.646 169.915 122.416V127.363H168.729V122.478C168.729 121.937 168.656 121.495 168.511 121.152C168.375 120.798 168.162 120.538 167.871 120.371C167.579 120.205 167.221 120.127 166.794 120.137C166.44 120.137 166.112 120.2 165.811 120.325C165.509 120.439 165.249 120.6 165.03 120.808C164.812 121.016 164.64 121.256 164.515 121.526C164.391 121.797 164.328 122.088 164.328 122.4V127.363H163.751C163.678 127.363 163.595 127.363 163.501 127.363C163.407 127.363 163.293 127.363 163.158 127.363Z" fill="white"/>
<path d="M87.3305 153.363V141.225H89.1686L93.5905 148.421L92.7061 148.404L97.18 141.225H98.9141V153.363H97.0413V148.386C97.0413 147.346 97.0644 146.41 97.1107 145.577C97.1685 144.745 97.2609 143.918 97.3881 143.097L97.6309 143.739L93.6599 149.878H92.5154L88.6657 143.808L88.8565 143.097C88.9836 143.872 89.0703 144.67 89.1166 145.49C89.1744 146.3 89.2033 147.265 89.2033 148.386V153.363H87.3305ZM105.369 153.537C104.618 153.537 103.93 153.328 103.306 152.912C102.693 152.496 102.202 151.93 101.832 151.213C101.462 150.496 101.277 149.687 101.277 148.785C101.277 147.872 101.462 147.063 101.832 146.358C102.213 145.641 102.722 145.08 103.358 144.675C104.005 144.271 104.728 144.069 105.525 144.069C105.999 144.069 106.433 144.138 106.826 144.277C107.219 144.415 107.56 144.612 107.849 144.866C108.15 145.109 108.392 145.392 108.577 145.716C108.774 146.04 108.895 146.386 108.942 146.756L108.543 146.618V144.259H110.346V153.363H108.543V151.196L108.959 151.074C108.889 151.386 108.745 151.693 108.525 151.993C108.317 152.282 108.046 152.542 107.71 152.774C107.387 153.005 107.022 153.19 106.618 153.328C106.225 153.467 105.809 153.537 105.369 153.537ZM105.838 151.889C106.381 151.889 106.861 151.756 107.277 151.49C107.693 151.224 108.017 150.86 108.248 150.398C108.491 149.924 108.612 149.386 108.612 148.785C108.612 148.196 108.491 147.67 108.248 147.207C108.017 146.745 107.693 146.381 107.277 146.115C106.861 145.849 106.381 145.716 105.838 145.716C105.306 145.716 104.832 145.849 104.416 146.115C104.011 146.381 103.687 146.745 103.444 147.207C103.213 147.67 103.098 148.196 103.098 148.785C103.098 149.386 103.213 149.924 103.444 150.398C103.687 150.86 104.011 151.224 104.416 151.49C104.832 151.756 105.306 151.889 105.838 151.889ZM112.84 153.363V144.259H114.643V147.121L114.47 146.427C114.597 145.988 114.811 145.589 115.112 145.23C115.424 144.872 115.776 144.589 116.169 144.381C116.574 144.173 116.99 144.069 117.418 144.069C117.614 144.069 117.799 144.086 117.973 144.121C118.158 144.155 118.302 144.196 118.406 144.242L117.938 146.184C117.799 146.126 117.643 146.08 117.47 146.045C117.308 145.999 117.146 145.976 116.984 145.976C116.672 145.976 116.372 146.04 116.083 146.167C115.805 146.282 115.557 146.45 115.337 146.67C115.129 146.878 114.961 147.126 114.834 147.415C114.707 147.693 114.643 147.999 114.643 148.334V153.363H112.84ZM121.464 150.519L121.377 148.577L125.73 144.259H128.14L121.464 150.519ZM119.834 153.363V140.531H121.62V153.363H119.834ZM125.972 153.363L122.539 149.357L123.805 148.196L128.261 153.363H125.972ZM138.746 153.537C138.087 153.537 137.474 153.45 136.908 153.276C136.353 153.103 135.844 152.843 135.382 152.496C134.931 152.138 134.527 151.698 134.168 151.178L135.451 149.704C136.018 150.514 136.561 151.074 137.081 151.386C137.602 151.698 138.22 151.855 138.937 151.855C139.376 151.855 139.775 151.785 140.133 151.646C140.492 151.508 140.775 151.317 140.983 151.074C141.191 150.831 141.295 150.554 141.295 150.242C141.295 150.034 141.261 149.837 141.191 149.652C141.122 149.467 141.012 149.3 140.862 149.149C140.723 148.999 140.538 148.86 140.307 148.733C140.087 148.606 139.827 148.496 139.526 148.404C139.226 148.3 138.879 148.213 138.486 148.144C137.862 148.016 137.318 147.849 136.856 147.641C136.394 147.433 136.006 147.173 135.694 146.86C135.382 146.548 135.151 146.196 135.001 145.803C134.85 145.398 134.775 144.947 134.775 144.45C134.775 143.964 134.879 143.514 135.087 143.097C135.307 142.681 135.602 142.323 135.972 142.022C136.353 141.71 136.798 141.473 137.307 141.311C137.816 141.138 138.365 141.051 138.954 141.051C139.578 141.051 140.151 141.132 140.671 141.294C141.191 141.456 141.654 141.699 142.058 142.022C142.463 142.334 142.798 142.722 143.064 143.184L141.746 144.485C141.515 144.103 141.255 143.785 140.966 143.531C140.677 143.265 140.359 143.069 140.012 142.941C139.665 142.803 139.295 142.733 138.902 142.733C138.451 142.733 138.058 142.803 137.723 142.941C137.388 143.08 137.122 143.277 136.925 143.531C136.74 143.774 136.648 144.063 136.648 144.398C136.648 144.641 136.694 144.866 136.787 145.074C136.879 145.271 137.018 145.45 137.203 145.612C137.399 145.762 137.659 145.901 137.983 146.028C138.307 146.144 138.694 146.248 139.145 146.34C139.781 146.479 140.347 146.658 140.844 146.878C141.341 147.086 141.763 147.334 142.11 147.623C142.457 147.912 142.717 148.236 142.891 148.594C143.076 148.953 143.168 149.34 143.168 149.756C143.168 150.531 142.989 151.201 142.63 151.768C142.272 152.334 141.763 152.774 141.104 153.086C140.446 153.386 139.659 153.537 138.746 153.537ZM145.336 153.363V144.259H147.139V146.201L146.81 146.41C146.902 146.109 147.047 145.82 147.243 145.542C147.452 145.265 147.7 145.022 147.989 144.814C148.29 144.595 148.608 144.421 148.943 144.294C149.29 144.167 149.642 144.103 150.001 144.103C150.521 144.103 150.978 144.19 151.371 144.363C151.764 144.537 152.087 144.797 152.342 145.144C152.596 145.49 152.781 145.924 152.897 146.444L152.619 146.375L152.74 146.08C152.868 145.814 153.041 145.566 153.261 145.334C153.492 145.092 153.752 144.878 154.041 144.693C154.33 144.508 154.636 144.363 154.96 144.259C155.284 144.155 155.602 144.103 155.914 144.103C156.596 144.103 157.157 144.242 157.596 144.519C158.047 144.797 158.382 145.219 158.602 145.785C158.833 146.352 158.948 147.057 158.948 147.901V153.363H157.145V148.005C157.145 147.485 157.076 147.063 156.937 146.739C156.81 146.404 156.613 146.155 156.347 145.993C156.081 145.832 155.74 145.751 155.324 145.751C155.001 145.751 154.694 145.808 154.405 145.924C154.128 146.028 153.885 146.178 153.677 146.375C153.469 146.571 153.307 146.803 153.191 147.068C153.076 147.323 153.018 147.606 153.018 147.918V153.363H151.215V147.97C151.215 147.496 151.145 147.097 151.006 146.774C150.868 146.438 150.665 146.184 150.4 146.011C150.134 145.837 149.81 145.751 149.428 145.751C149.105 145.751 148.804 145.808 148.527 145.924C148.249 146.028 148.006 146.178 147.798 146.375C147.59 146.56 147.428 146.785 147.313 147.051C147.197 147.305 147.139 147.583 147.139 147.883V153.363H145.336ZM161.635 153.363V144.259H163.421V153.363H161.635ZM162.502 142.248C162.12 142.248 161.825 142.149 161.617 141.953C161.409 141.756 161.305 141.479 161.305 141.121C161.305 140.785 161.409 140.514 161.617 140.306C161.837 140.098 162.132 139.993 162.502 139.993C162.883 139.993 163.178 140.092 163.386 140.288C163.594 140.485 163.698 140.762 163.698 141.121C163.698 141.456 163.588 141.728 163.369 141.936C163.161 142.144 162.871 142.248 162.502 142.248ZM167.293 153.363V141.936H169.079V153.363H167.293ZM165.403 145.993V144.259H171.195V145.993H165.403ZM172.821 153.363V140.531H174.607V146.132L174.295 146.34C174.411 145.936 174.636 145.566 174.971 145.23C175.307 144.884 175.706 144.606 176.168 144.398C176.63 144.178 177.104 144.069 177.59 144.069C178.284 144.069 178.862 144.207 179.324 144.485C179.786 144.751 180.133 145.161 180.364 145.716C180.596 146.271 180.711 146.97 180.711 147.814V153.363H178.925V147.936C178.925 147.415 178.856 146.988 178.717 146.652C178.578 146.305 178.364 146.057 178.075 145.907C177.786 145.745 177.428 145.675 177 145.699C176.653 145.699 176.336 145.756 176.047 145.872C175.758 145.976 175.503 146.126 175.284 146.323C175.075 146.519 174.908 146.751 174.781 147.016C174.665 147.271 174.607 147.548 174.607 147.849V153.363H173.723C173.573 153.363 173.422 153.363 173.272 153.363C173.122 153.363 172.971 153.363 172.821 153.363Z" fill="white"/>
<path d="M332.251 146.639V144.184H338.681V146.639H332.251ZM346.34 151.571C345.092 151.571 343.996 151.342 343.052 150.884C342.109 150.427 341.304 149.754 340.639 148.866L342.241 146.764C342.948 147.68 343.635 148.318 344.301 148.679C344.967 149.039 345.716 149.22 346.548 149.22C347.02 149.22 347.45 149.15 347.838 149.012C348.227 148.859 348.532 148.658 348.754 148.408C348.976 148.144 349.087 147.846 349.087 147.513C349.087 147.277 349.038 147.062 348.941 146.868C348.858 146.66 348.726 146.48 348.546 146.327C348.366 146.161 348.144 146.008 347.88 145.869C347.616 145.731 347.318 145.613 346.985 145.516C346.652 145.419 346.285 145.328 345.882 145.245C344.856 145.037 344.003 144.739 343.323 144.35C342.657 143.948 342.158 143.449 341.825 142.852C341.492 142.256 341.325 141.555 341.325 140.75C341.325 140.14 341.457 139.578 341.721 139.065C341.998 138.552 342.373 138.108 342.844 137.733C343.316 137.359 343.864 137.067 344.488 136.859C345.112 136.651 345.785 136.547 346.507 136.547C347.644 136.547 348.65 136.755 349.524 137.171C350.398 137.574 351.119 138.177 351.688 138.982L350.148 140.854C349.677 140.216 349.129 139.738 348.504 139.419C347.894 139.086 347.228 138.919 346.507 138.919C346.007 138.919 345.57 138.989 345.196 139.127C344.835 139.266 344.551 139.467 344.343 139.731C344.134 139.98 344.03 140.286 344.03 140.646C344.03 140.924 344.093 141.174 344.218 141.395C344.343 141.604 344.516 141.791 344.738 141.957C344.974 142.124 345.272 142.269 345.633 142.394C345.993 142.519 346.403 142.63 346.86 142.727C347.623 142.88 348.31 143.088 348.92 143.352C349.531 143.601 350.051 143.906 350.481 144.267C350.911 144.614 351.237 145.016 351.459 145.474C351.681 145.918 351.792 146.417 351.792 146.972C351.792 147.929 351.563 148.755 351.105 149.448C350.661 150.128 350.03 150.655 349.212 151.03C348.393 151.391 347.436 151.571 346.34 151.571ZM345.092 153.257L345.175 143.726L347.068 144.413L347.152 153.257H345.092ZM347.797 144.413L345.903 143.726L345.82 135.049H347.88L347.797 144.413ZM358.803 151.363C358.068 151.363 357.381 151.231 356.743 150.968C356.119 150.704 355.571 150.343 355.099 149.885C354.641 149.414 354.281 148.866 354.017 148.242C353.754 147.617 353.622 146.931 353.622 146.182C353.622 145.765 353.67 145.321 353.767 144.85C353.878 144.378 354.038 143.879 354.246 143.352C354.468 142.81 354.725 142.249 355.016 141.666C355.307 141.083 355.647 140.473 356.036 139.835L357.971 136.547H360.551L360.634 136.755L358.158 140.834C357.756 141.5 357.402 142.131 357.097 142.727C356.792 143.31 356.528 143.872 356.306 144.413C356.098 144.94 355.925 145.453 355.786 145.953L355.224 144.059C355.432 143.615 355.689 143.213 355.994 142.852C356.299 142.491 356.639 142.186 357.014 141.936C357.388 141.687 357.777 141.5 358.179 141.375C358.595 141.25 359.018 141.187 359.448 141.187C360.253 141.187 360.995 141.409 361.675 141.853C362.355 142.283 362.896 142.859 363.298 143.58C363.714 144.302 363.922 145.093 363.922 145.953C363.922 146.993 363.7 147.923 363.256 148.741C362.826 149.546 362.223 150.184 361.446 150.655C360.669 151.127 359.788 151.363 358.803 151.363ZM358.824 148.991C359.323 148.991 359.767 148.873 360.156 148.637C360.558 148.401 360.87 148.075 361.092 147.659C361.314 147.229 361.425 146.736 361.425 146.182C361.425 145.71 361.307 145.273 361.071 144.871C360.849 144.454 360.544 144.121 360.156 143.872C359.767 143.608 359.33 143.476 358.845 143.476C358.318 143.476 357.846 143.601 357.43 143.851C357.028 144.087 356.708 144.413 356.473 144.829C356.251 145.231 356.14 145.682 356.14 146.182C356.14 146.709 356.251 147.187 356.473 147.617C356.708 148.033 357.028 148.366 357.43 148.616C357.832 148.866 358.297 148.991 358.824 148.991ZM370.673 151.425C369.744 151.425 368.891 151.238 368.114 150.864C367.351 150.475 366.74 149.962 366.283 149.324C365.825 148.672 365.596 147.95 365.596 147.16C365.596 146.688 365.658 146.251 365.783 145.849C365.922 145.446 366.116 145.086 366.366 144.767C366.629 144.447 366.941 144.163 367.302 143.913C367.677 143.65 368.1 143.421 368.571 143.227L368.405 143.809C368.044 143.657 367.711 143.476 367.406 143.268C367.115 143.06 366.858 142.824 366.636 142.561C366.428 142.283 366.269 141.992 366.158 141.687C366.047 141.368 365.991 141.035 365.991 140.688C365.991 139.939 366.199 139.266 366.615 138.67C367.046 138.073 367.614 137.601 368.322 137.255C369.029 136.894 369.813 136.713 370.673 136.713C371.547 136.713 372.338 136.894 373.045 137.255C373.753 137.601 374.315 138.073 374.731 138.67C375.161 139.266 375.376 139.939 375.376 140.688C375.376 141.035 375.321 141.368 375.21 141.687C375.099 141.992 374.939 142.276 374.731 142.54C374.537 142.79 374.287 143.025 373.982 143.247C373.677 143.456 373.323 143.643 372.921 143.809L372.817 143.31C373.26 143.462 373.663 143.664 374.023 143.913C374.384 144.163 374.696 144.454 374.96 144.787C375.223 145.12 375.425 145.488 375.563 145.89C375.716 146.292 375.792 146.716 375.792 147.16C375.792 147.964 375.563 148.692 375.105 149.344C374.648 149.983 374.03 150.489 373.253 150.864C372.491 151.238 371.63 151.425 370.673 151.425ZM370.673 149.095C371.145 149.095 371.568 149.005 371.943 148.824C372.317 148.644 372.608 148.401 372.817 148.096C373.038 147.791 373.149 147.437 373.149 147.035C373.149 146.605 373.038 146.23 372.817 145.911C372.608 145.578 372.317 145.321 371.943 145.141C371.568 144.947 371.145 144.85 370.673 144.85C370.215 144.85 369.799 144.947 369.425 145.141C369.064 145.321 368.773 145.578 368.551 145.911C368.329 146.23 368.218 146.605 368.218 147.035C368.218 147.423 368.329 147.77 368.551 148.075C368.773 148.38 369.064 148.63 369.425 148.824C369.799 149.005 370.215 149.095 370.673 149.095ZM370.673 142.561C371.089 142.561 371.457 142.484 371.776 142.332C372.109 142.179 372.366 141.971 372.546 141.708C372.726 141.444 372.817 141.139 372.817 140.792C372.817 140.431 372.726 140.119 372.546 139.856C372.366 139.578 372.109 139.363 371.776 139.211C371.457 139.044 371.089 138.961 370.673 138.961C370.271 138.961 369.903 139.044 369.57 139.211C369.251 139.363 369.002 139.578 368.821 139.856C368.641 140.119 368.551 140.431 368.551 140.792C368.551 141.139 368.641 141.444 368.821 141.708C369.002 141.971 369.251 142.179 369.57 142.332C369.903 142.484 370.271 142.561 370.673 142.561ZM379.266 151.592C378.767 151.592 378.378 151.446 378.101 151.155C377.837 150.864 377.705 150.454 377.705 149.927C377.705 149.442 377.844 149.046 378.121 148.741C378.413 148.422 378.794 148.262 379.266 148.262C379.765 148.262 380.147 148.408 380.41 148.699C380.688 148.977 380.827 149.386 380.827 149.927C380.827 150.413 380.681 150.815 380.39 151.134C380.112 151.439 379.738 151.592 379.266 151.592ZM388.303 151.571C387.124 151.571 386.111 151.273 385.265 150.676C384.432 150.066 383.787 149.206 383.33 148.096C382.886 146.972 382.664 145.634 382.664 144.08C382.664 142.526 382.886 141.194 383.33 140.085C383.787 138.961 384.432 138.101 385.265 137.504C386.111 136.894 387.124 136.589 388.303 136.589C389.482 136.589 390.495 136.894 391.341 137.504C392.187 138.101 392.832 138.961 393.276 140.085C393.734 141.194 393.963 142.526 393.963 144.08C393.963 145.634 393.734 146.972 393.276 148.096C392.832 149.206 392.187 150.066 391.341 150.676C390.495 151.273 389.482 151.571 388.303 151.571ZM388.303 149.199C389.274 149.199 390.023 148.755 390.55 147.867C391.091 146.965 391.362 145.703 391.362 144.08C391.362 142.443 391.091 141.174 390.55 140.272C390.023 139.37 389.274 138.919 388.303 138.919C387.332 138.919 386.576 139.37 386.035 140.272C385.508 141.174 385.244 142.443 385.244 144.08C385.244 145.703 385.508 146.965 386.035 147.867C386.576 148.755 387.332 149.199 388.303 149.199ZM401.43 151.571C400.251 151.571 399.238 151.273 398.392 150.676C397.56 150.066 396.915 149.206 396.457 148.096C396.013 146.972 395.791 145.634 395.791 144.08C395.791 142.526 396.013 141.194 396.457 140.085C396.915 138.961 397.56 138.101 398.392 137.504C399.238 136.894 400.251 136.589 401.43 136.589C402.609 136.589 403.622 136.894 404.468 137.504C405.315 138.101 405.96 138.961 406.404 140.085C406.861 141.194 407.09 142.526 407.09 144.08C407.09 145.634 406.861 146.972 406.404 148.096C405.96 149.206 405.315 150.066 404.468 150.676C403.622 151.273 402.609 151.571 401.43 151.571ZM401.43 149.199C402.401 149.199 403.151 148.755 403.678 147.867C404.219 146.965 404.489 145.703 404.489 144.08C404.489 142.443 404.219 141.174 403.678 140.272C403.151 139.37 402.401 138.919 401.43 138.919C400.459 138.919 399.703 139.37 399.162 140.272C398.635 141.174 398.371 142.443 398.371 144.08C398.371 145.703 398.635 146.965 399.162 147.867C399.703 148.755 400.459 149.199 401.43 149.199Z" fill="white"/>
</g>
<rect x="1.09538" y="44.4556" width="444.789" height="75.8781" rx="9.97091" fill="#1C1C1C"/>
<rect x="1.09538" y="44.4556" width="444.789" height="75.8781" rx="9.97091" stroke="#262626" stroke-width="0.867036"/>
<rect x="21.4707" y="63.3198" width="38.1496" height="38.1496" rx="19.0748" fill="#CAFF33"/>
<path fill-rule="evenodd" clip-rule="evenodd" d="M43.8753 74.3204C43.5821 74.6362 43.6003 75.13 43.9162 75.4232L46.1015 77.4525L37.164 77.4525C36.7331 77.4525 36.3837 77.8019 36.3837 78.2328C36.3837 78.6638 36.7331 79.0132 37.164 79.0132L46.1015 79.0132L43.9162 81.0424C43.6003 81.3357 43.5821 81.8294 43.8753 82.1452C44.1686 82.461 44.6623 82.4793 44.9781 82.1861L48.6197 78.8046C48.7787 78.657 48.869 78.4498 48.869 78.2328C48.869 78.0158 48.7787 77.8086 48.6197 77.661L44.9781 74.2796C44.6623 73.9863 44.1686 74.0046 43.8753 74.3204ZM37.2156 82.6439C36.9224 82.3281 36.4286 82.3099 36.1128 82.6031L32.4713 85.9845C32.3123 86.1322 32.2219 86.3394 32.2219 86.5564C32.2219 86.7734 32.3123 86.9805 32.4713 87.1282L36.1128 90.5096C36.4286 90.8029 36.9224 90.7846 37.2156 90.4688C37.5089 90.153 37.4906 89.6592 37.1748 89.366L34.9894 87.3367H43.9269C44.3579 87.3367 44.7072 86.9873 44.7072 86.5564C44.7072 86.1254 44.3579 85.776 43.9269 85.776H34.9894L37.1748 83.7467C37.4906 83.4535 37.5089 82.9598 37.2156 82.6439Z" fill="#1C1C1C"/>
<path d="M71.8803 74.8947V65.1561H68.759V63.97H76.3438V65.1561H73.0976V74.8947H71.8803ZM77.0048 74.8947V66.748H78.1753L78.2065 68.9173L78.0816 68.6208C78.1961 68.2566 78.3782 67.9185 78.6279 67.6063C78.888 67.2942 79.1949 67.0445 79.5487 66.8572C79.9024 66.6699 80.2926 66.5763 80.7192 66.5763C80.896 66.5763 81.0625 66.5919 81.2186 66.6231C81.3746 66.6439 81.5047 66.6752 81.6087 66.7168L81.281 68.0277C81.1457 67.9653 81.0053 67.9237 80.8596 67.9029C80.7244 67.8717 80.5943 67.8561 80.4694 67.8561C80.1157 67.8561 79.7984 67.9185 79.5174 68.0433C79.2365 68.1682 78.9972 68.3451 78.7995 68.574C78.6018 68.7925 78.451 69.0474 78.3469 69.3387C78.2429 69.63 78.1909 69.9421 78.1909 70.2751V74.8947H77.0048ZM85.66 75.0507C84.9525 75.0507 84.3126 74.8686 83.7404 74.5045C83.1681 74.1299 82.7155 73.6253 82.3826 72.9906C82.0497 72.3456 81.8832 71.6173 81.8832 70.8057C81.8832 69.9838 82.0549 69.2555 82.3982 68.6208C82.7416 67.9861 83.1993 67.4867 83.7716 67.1225C84.3542 66.7584 85.0045 66.5763 85.7224 66.5763C86.149 66.5763 86.5444 66.6387 86.9085 66.7636C87.2727 66.8884 87.5952 67.0653 87.8761 67.2942C88.1675 67.5127 88.4068 67.7728 88.594 68.0745C88.7917 68.3659 88.927 68.6832 88.9998 69.0266L88.6565 68.8549L88.7033 66.748H89.8738V74.8947H88.6877V72.897L88.9998 72.6941C88.927 73.0062 88.7865 73.308 88.5784 73.5993C88.3704 73.8802 88.1154 74.1299 87.8137 74.3484C87.5224 74.5669 87.1894 74.7386 86.8149 74.8634C86.4507 74.9883 86.0658 75.0507 85.66 75.0507ZM85.9253 73.927C86.4663 73.927 86.9501 73.797 87.3767 73.5369C87.8033 73.2664 88.1363 72.897 88.3756 72.4288C88.6253 71.9502 88.7501 71.4092 88.7501 70.8057C88.7501 70.2023 88.6253 69.6664 88.3756 69.1982C88.1363 68.73 87.8033 68.3607 87.3767 68.0902C86.9501 67.8196 86.4663 67.6844 85.9253 67.6844C85.3739 67.6844 84.8849 67.8196 84.4583 68.0902C84.0421 68.3607 83.7092 68.73 83.4595 69.1982C83.2202 69.6664 83.1005 70.2023 83.1005 70.8057C83.1005 71.3988 83.2202 71.9346 83.4595 72.4132C83.6988 72.8814 84.0317 73.2508 84.4583 73.5213C84.8849 73.7918 85.3739 73.927 85.9253 73.927ZM92.1542 74.8947V66.748H93.3091L93.3559 68.4491L93.1686 68.5271C93.2727 68.1734 93.4756 67.8509 93.7773 67.5595C94.079 67.2682 94.438 67.0341 94.8541 66.8572C95.2807 66.6699 95.7177 66.5763 96.1651 66.5763C96.7686 66.5763 97.2732 66.696 97.6789 66.9353C98.0847 67.1746 98.3916 67.5439 98.5997 68.0433C98.8078 68.5427 98.9119 69.1774 98.9119 69.9473V74.8947H97.7258V70.0098C97.7258 69.4687 97.6529 69.0266 97.5073 68.6832C97.372 68.3295 97.1587 68.0693 96.8674 67.9029C96.5761 67.7364 96.2171 67.6584 95.7905 67.6688C95.4368 67.6688 95.109 67.7312 94.8073 67.8561C94.5056 67.9705 94.2455 68.1318 94.027 68.3399C93.8085 68.5479 93.6368 68.7873 93.512 69.0578C93.3871 69.3283 93.3247 69.6196 93.3247 69.9317V74.8947H92.7472C92.6744 74.8947 92.5912 74.8947 92.4975 74.8947C92.4039 74.8947 92.2894 74.8947 92.1542 74.8947ZM103.815 75.0507C103.118 75.0507 102.494 74.9207 101.942 74.6606C101.391 74.4004 100.954 74.0571 100.631 73.6305L101.458 72.9126C101.76 73.2768 102.114 73.5525 102.52 73.7398C102.936 73.927 103.399 74.0207 103.909 74.0207C104.169 74.0207 104.403 73.9947 104.611 73.9426C104.819 73.8802 105.001 73.7918 105.157 73.6773C105.313 73.5629 105.433 73.4276 105.516 73.2716C105.599 73.1155 105.641 72.9438 105.641 72.7565C105.641 72.4132 105.49 72.1271 105.188 71.8982C105.053 71.8045 104.861 71.7109 104.611 71.6173C104.361 71.5132 104.06 71.4144 103.706 71.3207C103.123 71.1543 102.639 70.9878 102.254 70.8213C101.869 70.6444 101.568 70.4416 101.349 70.2127C101.193 70.0254 101.073 69.8225 100.99 69.604C100.917 69.3855 100.881 69.1462 100.881 68.8861C100.881 68.5532 100.949 68.2462 101.084 67.9653C101.23 67.6844 101.427 67.4399 101.677 67.2318C101.937 67.0133 102.239 66.852 102.582 66.748C102.936 66.6335 103.316 66.5763 103.721 66.5763C104.106 66.5763 104.486 66.6283 104.861 66.7324C105.235 66.8364 105.584 66.9873 105.906 67.185C106.229 67.3827 106.505 67.6168 106.733 67.8873L106.016 68.6676C105.818 68.4595 105.599 68.2722 105.36 68.1058C105.121 67.9393 104.866 67.8092 104.595 67.7156C104.335 67.622 104.065 67.5751 103.784 67.5751C103.534 67.5751 103.3 67.6063 103.082 67.6688C102.873 67.7312 102.691 67.8196 102.535 67.9341C102.39 68.0381 102.275 68.1682 102.192 68.3243C102.119 68.4803 102.083 68.652 102.083 68.8393C102.083 68.9953 102.114 69.1358 102.176 69.2607C102.239 69.3855 102.327 69.4948 102.442 69.5884C102.587 69.7028 102.79 69.8121 103.05 69.9161C103.321 70.0098 103.654 70.1086 104.049 70.2127C104.507 70.3375 104.892 70.4676 105.204 70.6028C105.527 70.7277 105.792 70.8785 106 71.0554C106.281 71.2635 106.479 71.5028 106.593 71.7733C106.718 72.0438 106.78 72.3508 106.78 72.6941C106.78 73.1519 106.65 73.5577 106.39 73.9114C106.14 74.2652 105.792 74.5461 105.344 74.7542C104.897 74.9519 104.387 75.0507 103.815 75.0507ZM111.798 75.0507C111.091 75.0507 110.451 74.8686 109.878 74.5045C109.306 74.1299 108.854 73.6253 108.521 72.9906C108.188 72.3456 108.021 71.6173 108.021 70.8057C108.021 69.9838 108.193 69.2555 108.536 68.6208C108.88 67.9861 109.337 67.4867 109.91 67.1225C110.492 66.7584 111.143 66.5763 111.861 66.5763C112.287 66.5763 112.682 66.6387 113.047 66.7636C113.411 66.8884 113.733 67.0653 114.014 67.2942C114.306 67.5127 114.545 67.7728 114.732 68.0745C114.93 68.3659 115.065 68.6832 115.138 69.0266L114.795 68.8549L114.841 66.748H116.012V74.8947H114.826V72.897L115.138 72.6941C115.065 73.0062 114.925 73.308 114.717 73.5993C114.508 73.8802 114.254 74.1299 113.952 74.3484C113.66 74.5669 113.328 74.7386 112.953 74.8634C112.589 74.9883 112.204 75.0507 111.798 75.0507ZM112.063 73.927C112.604 73.927 113.088 73.797 113.515 73.5369C113.941 73.2664 114.274 72.897 114.514 72.4288C114.763 71.9502 114.888 71.4092 114.888 70.8057C114.888 70.2023 114.763 69.6664 114.514 69.1982C114.274 68.73 113.941 68.3607 113.515 68.0902C113.088 67.8196 112.604 67.6844 112.063 67.6844C111.512 67.6844 111.023 67.8196 110.596 68.0902C110.18 68.3607 109.847 68.73 109.598 69.1982C109.358 69.6664 109.239 70.2023 109.239 70.8057C109.239 71.3988 109.358 71.9346 109.598 72.4132C109.837 72.8814 110.17 73.2508 110.596 73.5213C111.023 73.7918 111.512 73.927 112.063 73.927ZM121.726 75.0507C120.956 75.0507 120.269 74.8686 119.666 74.5045C119.062 74.1299 118.584 73.6253 118.23 72.9906C117.887 72.3456 117.715 71.6173 117.715 70.8057C117.715 69.9942 117.887 69.2711 118.23 68.6364C118.584 67.9913 119.062 67.4867 119.666 67.1225C120.269 66.7584 120.961 66.5763 121.741 66.5763C122.438 66.5763 123.073 66.7168 123.645 66.9977C124.218 67.2682 124.675 67.648 125.019 68.137L124.332 68.9797C124.134 68.7196 123.895 68.4907 123.614 68.293C123.344 68.0954 123.047 67.9445 122.725 67.8404C122.412 67.726 122.1 67.6688 121.788 67.6688C121.237 67.6688 120.743 67.8092 120.306 68.0902C119.869 68.3607 119.52 68.73 119.26 69.1982C119.01 69.6664 118.885 70.2023 118.885 70.8057C118.885 71.4092 119.01 71.9502 119.26 72.4288C119.52 72.897 119.869 73.2664 120.306 73.5369C120.743 73.8074 121.232 73.9426 121.773 73.9426C122.085 73.9426 122.392 73.8958 122.693 73.8022C122.995 73.6981 123.281 73.5525 123.552 73.3652C123.822 73.1779 124.072 72.9438 124.301 72.6629L124.988 73.5057C124.634 73.9739 124.16 74.3484 123.567 74.6293C122.974 74.9103 122.36 75.0507 121.726 75.0507ZM127.631 74.8947V64.6099H128.801V74.8947H127.631ZM125.789 67.8717V66.748H130.861V67.8717H125.789ZM132.611 74.8947V66.748H133.781V74.8947H132.611ZM133.188 64.9844C132.897 64.9844 132.673 64.9116 132.517 64.7659C132.371 64.6099 132.299 64.4018 132.299 64.1417C132.299 63.8816 132.377 63.6735 132.533 63.5174C132.689 63.3613 132.907 63.2833 133.188 63.2833C133.469 63.2833 133.688 63.3613 133.844 63.5174C134 63.6631 134.078 63.8712 134.078 64.1417C134.078 64.3914 134 64.5943 133.844 64.7503C133.688 64.9064 133.469 64.9844 133.188 64.9844ZM139.943 75.0507C139.131 75.0507 138.408 74.8686 137.773 74.5045C137.149 74.1403 136.655 73.6357 136.291 72.9906C135.937 72.3456 135.76 71.6121 135.76 70.7901C135.76 69.9786 135.937 69.2555 136.291 68.6208C136.655 67.9861 137.149 67.4867 137.773 67.1225C138.408 66.7584 139.131 66.5763 139.943 66.5763C140.744 66.5763 141.456 66.7584 142.081 67.1225C142.715 67.4867 143.21 67.9861 143.563 68.6208C143.927 69.2555 144.11 69.9786 144.11 70.7901C144.11 71.6121 143.927 72.3456 143.563 72.9906C143.21 73.6357 142.715 74.1403 142.081 74.5045C141.456 74.8686 140.744 75.0507 139.943 75.0507ZM139.943 73.9426C140.515 73.9426 141.025 73.8074 141.472 73.5369C141.919 73.256 142.268 72.8814 142.518 72.4132C142.767 71.9346 142.892 71.3936 142.892 70.7901C142.892 70.1866 142.767 69.6508 142.518 69.1826C142.268 68.7144 141.919 68.3503 141.472 68.0902C141.025 67.8196 140.515 67.6844 139.943 67.6844C139.37 67.6844 138.855 67.8196 138.398 68.0902C137.95 68.3503 137.596 68.7196 137.336 69.1982C137.087 69.6664 136.967 70.1971 136.977 70.7901C136.967 71.3936 137.087 71.9346 137.336 72.4132C137.596 72.8814 137.95 73.256 138.398 73.5369C138.855 73.8074 139.37 73.9426 139.943 73.9426ZM145.817 74.8947V66.748H146.972L147.019 68.4491L146.832 68.5271C146.936 68.1734 147.139 67.8509 147.44 67.5595C147.742 67.2682 148.101 67.0341 148.517 66.8572C148.944 66.6699 149.381 66.5763 149.828 66.5763C150.432 66.5763 150.936 66.696 151.342 66.9353C151.748 67.1746 152.055 67.5439 152.263 68.0433C152.471 68.5427 152.575 69.1774 152.575 69.9473V74.8947H151.389V70.0098C151.389 69.4687 151.316 69.0266 151.17 68.6832C151.035 68.3295 150.822 68.0693 150.53 67.9029C150.239 67.7364 149.88 67.6584 149.454 67.6688C149.1 67.6688 148.772 67.7312 148.47 67.8561C148.169 67.9705 147.909 68.1318 147.69 68.3399C147.472 68.5479 147.3 68.7873 147.175 69.0578C147.05 69.3283 146.988 69.6196 146.988 69.9317V74.8947H146.41C146.338 74.8947 146.254 74.8947 146.161 74.8947C146.067 74.8947 145.953 74.8947 145.817 74.8947Z" fill="white"/>
<path d="M72.73 101.068C72.3369 101.068 71.9612 101.016 71.6028 100.912C71.2445 100.808 70.9092 100.658 70.5971 100.461C70.2965 100.265 70.0248 100.033 69.7821 99.7675C69.5393 99.4901 69.3312 99.1895 69.1578 98.8658L70.337 97.6346C70.5797 97.9814 70.7994 98.2589 70.9959 98.467C71.204 98.675 71.4005 98.8369 71.5855 98.9525C71.7705 99.0681 71.9554 99.149 72.1404 99.1953C72.3254 99.2299 72.5219 99.2473 72.73 99.2473C73.1462 99.2473 73.5103 99.1548 73.8225 98.9698C74.1346 98.7733 74.3774 98.5074 74.5508 98.1722C74.7242 97.8369 74.8109 97.4554 74.8109 97.0277V90.4902H72.5913V88.7561H78.5565V90.4902H76.6837V97.2011C76.6837 97.756 76.5854 98.2704 76.3889 98.7444C76.2039 99.2068 75.9322 99.6114 75.5739 99.9583C75.2271 100.305 74.8109 100.577 74.3253 100.773C73.8514 100.97 73.3196 101.068 72.73 101.068ZM83.8939 101.068C83.0037 101.068 82.2061 100.866 81.5009 100.461C80.8072 100.045 80.2581 99.4843 79.8535 98.7791C79.4489 98.0623 79.2466 97.2473 79.2466 96.334C79.2466 95.4208 79.4489 94.6115 79.8535 93.9063C80.2581 93.1896 80.8072 92.6289 81.5009 92.2243C82.2061 91.8081 83.0037 91.6 83.8939 91.6C84.7725 91.6 85.5586 91.8081 86.2522 92.2243C86.9574 92.6289 87.5123 93.1896 87.9169 93.9063C88.3216 94.6115 88.5239 95.4208 88.5239 96.334C88.5239 97.2473 88.3216 98.0623 87.9169 98.7791C87.5123 99.4843 86.9574 100.045 86.2522 100.461C85.5586 100.866 84.7725 101.068 83.8939 101.068ZM83.8939 99.438C84.4372 99.438 84.9228 99.3051 85.3505 99.0392C85.7783 98.7617 86.1135 98.3918 86.3563 97.9294C86.599 97.4554 86.7147 96.9236 86.7031 96.334C86.7147 95.7329 86.599 95.2011 86.3563 94.7387C86.1135 94.2647 85.7783 93.8948 85.3505 93.6289C84.9228 93.363 84.4372 93.2301 83.8939 93.2301C83.3506 93.2301 82.8592 93.3688 82.4199 93.6462C81.9922 93.9121 81.6569 94.2821 81.4142 94.756C81.1714 95.2185 81.0558 95.7445 81.0674 96.334C81.0558 96.9236 81.1714 97.4554 81.4142 97.9294C81.6569 98.3918 81.9922 98.7617 82.4199 99.0392C82.8592 99.3051 83.3506 99.438 83.8939 99.438ZM94.7186 101.068C93.7822 101.068 92.9498 100.872 92.2215 100.478C91.5048 100.074 90.9383 99.5247 90.5221 98.8311C90.1175 98.1375 89.9152 97.3398 89.9152 96.4381C89.9152 95.7213 90.0308 95.0682 90.262 94.4786C90.4932 93.889 90.8111 93.3803 91.2157 92.9526C91.6319 92.5133 92.1232 92.1781 92.6897 91.9468C93.2677 91.7041 93.892 91.5827 94.5625 91.5827C95.1521 91.5827 95.7012 91.6983 96.2099 91.9295C96.7185 92.1492 97.1578 92.4555 97.5278 92.8486C97.9093 93.2416 98.1983 93.7098 98.3948 94.2532C98.6029 94.7849 98.7012 95.3687 98.6896 96.0046L98.6723 96.7676H91.2331L90.8342 95.3456H97.1289L96.8688 95.6404V95.2242C96.8341 94.8427 96.707 94.5017 96.4873 94.2011C96.2677 93.9006 95.9902 93.6636 95.655 93.4902C95.3197 93.3168 94.9556 93.2301 94.5625 93.2301C93.9382 93.2301 93.4122 93.3514 92.9845 93.5942C92.5568 93.8254 92.2331 94.1722 92.0134 94.6347C91.7938 95.0855 91.6839 95.6462 91.6839 96.3167C91.6839 96.9525 91.8169 97.5074 92.0828 97.9814C92.3487 98.4438 92.7244 98.8022 93.2099 99.0565C93.6955 99.3109 94.2562 99.438 94.892 99.438C95.3428 99.438 95.759 99.3629 96.1405 99.2126C96.5336 99.0623 96.9555 98.7906 97.4064 98.3976L98.3081 99.6635C98.0306 99.9409 97.6896 100.184 97.285 100.392C96.8919 100.6 96.47 100.767 96.0191 100.895C95.5798 101.01 95.1463 101.068 94.7186 101.068ZM100.665 100.895V88.0625H102.451V100.895H100.665ZM111.854 97.2184L111.75 95.1202L118.114 88.7561H120.577L111.854 97.2184ZM110.294 100.895V88.7561H112.167V100.895H110.294ZM118.34 100.895L113.693 94.6867L115.08 93.4902L120.681 100.895H118.34ZM126.013 101.068C125.077 101.068 124.244 100.872 123.516 100.478C122.799 100.074 122.233 99.5247 121.817 98.8311C121.412 98.1375 121.21 97.3398 121.21 96.4381C121.21 95.7213 121.325 95.0682 121.557 94.4786C121.788 93.889 122.106 93.3803 122.51 92.9526C122.927 92.5133 123.418 92.1781 123.984 91.9468C124.562 91.7041 125.187 91.5827 125.857 91.5827C126.447 91.5827 126.996 91.6983 127.504 91.9295C128.013 92.1492 128.452 92.4555 128.822 92.8486C129.204 93.2416 129.493 93.7098 129.689 94.2532C129.897 94.7849 129.996 95.3687 129.984 96.0046L129.967 96.7676H122.528L122.129 95.3456H128.424L128.163 95.6404V95.2242C128.129 94.8427 128.002 94.5017 127.782 94.2011C127.562 93.9006 127.285 93.6636 126.95 93.4902C126.614 93.3168 126.25 93.2301 125.857 93.2301C125.233 93.2301 124.707 93.3514 124.279 93.5942C123.851 93.8254 123.528 94.1722 123.308 94.6347C123.088 95.0855 122.979 95.6462 122.979 96.3167C122.979 96.9525 123.111 97.5074 123.377 97.9814C123.643 98.4438 124.019 98.8022 124.505 99.0565C124.99 99.3109 125.551 99.438 126.187 99.438C126.637 99.438 127.054 99.3629 127.435 99.2126C127.828 99.0623 128.25 98.7906 128.701 98.3976L129.603 99.6635C129.325 99.9409 128.984 100.184 128.58 100.392C128.187 100.6 127.765 100.767 127.314 100.895C126.874 101.01 126.441 101.068 126.013 101.068ZM131.925 100.895V91.7908H133.711V93.6636L133.399 93.8717C133.515 93.467 133.74 93.0971 134.076 92.7619C134.411 92.415 134.81 92.1376 135.272 91.9295C135.734 91.7099 136.208 91.6 136.694 91.6C137.388 91.6 137.966 91.7388 138.428 92.0162C138.89 92.2821 139.237 92.6925 139.468 93.2474C139.7 93.8023 139.815 94.5017 139.815 95.3456V100.895H138.029V95.467C138.029 94.9468 137.96 94.519 137.821 94.1838C137.682 93.837 137.469 93.5884 137.179 93.4381C136.89 93.2763 136.532 93.2069 136.104 93.2301C135.758 93.2301 135.44 93.2879 135.151 93.4035C134.862 93.5075 134.607 93.6578 134.388 93.8543C134.18 94.0508 134.012 94.2821 133.885 94.5479C133.769 94.8023 133.711 95.0797 133.711 95.3803V100.895H132.827C132.677 100.895 132.526 100.895 132.376 100.895C132.226 100.895 132.076 100.895 131.925 100.895ZM142.273 100.895V88.0625H144.059V100.895H142.273ZM150.669 101.068C149.733 101.068 148.901 100.872 148.172 100.478C147.456 100.074 146.889 99.5247 146.473 98.8311C146.068 98.1375 145.866 97.3398 145.866 96.4381C145.866 95.7213 145.982 95.0682 146.213 94.4786C146.444 93.889 146.762 93.3803 147.167 92.9526C147.583 92.5133 148.074 92.1781 148.641 91.9468C149.219 91.7041 149.843 91.5827 150.513 91.5827C151.103 91.5827 151.652 91.6983 152.161 91.9295C152.669 92.1492 153.109 92.4555 153.479 92.8486C153.86 93.2416 154.149 93.7098 154.346 94.2532C154.554 94.7849 154.652 95.3687 154.641 96.0046L154.623 96.7676H147.184L146.785 95.3456H153.08L152.82 95.6404V95.2242C152.785 94.8427 152.658 94.5017 152.438 94.2011C152.219 93.9006 151.941 93.6636 151.606 93.4902C151.271 93.3168 150.906 93.2301 150.513 93.2301C149.889 93.2301 149.363 93.3514 148.935 93.5942C148.508 93.8254 148.184 94.1722 147.964 94.6347C147.745 95.0855 147.635 95.6462 147.635 96.3167C147.635 96.9525 147.768 97.5074 148.034 97.9814C148.3 98.4438 148.675 98.8022 149.161 99.0565C149.646 99.3109 150.207 99.438 150.843 99.438C151.294 99.438 151.71 99.3629 152.091 99.2126C152.484 99.0623 152.906 98.7906 153.357 98.3976L154.259 99.6635C153.982 99.9409 153.641 100.184 153.236 100.392C152.843 100.6 152.421 100.767 151.97 100.895C151.531 101.01 151.097 101.068 150.669 101.068ZM157.938 104.883L159.776 100.635L159.794 102.056L155.25 91.7908H157.331L160.175 98.4843C160.233 98.5999 160.302 98.7791 160.383 99.0219C160.464 99.2531 160.534 99.4843 160.591 99.7155L160.14 99.8195C160.233 99.5768 160.32 99.334 160.401 99.0912C160.493 98.8484 160.58 98.6057 160.661 98.3629L163.036 91.7908H165.152L161.406 100.895L159.863 104.883H157.938Z" fill="white"/>
<path d="M349.592 94.171V91.7156H356.022V94.171H349.592ZM363.681 99.1027C362.432 99.1027 361.337 98.8738 360.393 98.416C359.45 97.9583 358.645 97.2854 357.979 96.3976L359.582 94.2959C360.289 95.2115 360.976 95.8496 361.642 96.2103C362.308 96.571 363.057 96.7513 363.889 96.7513C364.361 96.7513 364.791 96.682 365.179 96.5433C365.568 96.3907 365.873 96.1895 366.095 95.9398C366.317 95.6762 366.428 95.378 366.428 95.045C366.428 94.8092 366.379 94.5942 366.282 94.3999C366.199 94.1918 366.067 94.0115 365.887 93.8589C365.706 93.6924 365.484 93.5398 365.221 93.4011C364.957 93.2624 364.659 93.1445 364.326 93.0474C363.993 92.9503 363.625 92.8601 363.223 92.7768C362.197 92.5688 361.343 92.2705 360.664 91.8821C359.998 91.4798 359.498 90.9803 359.165 90.3838C358.833 89.7873 358.666 89.0867 358.666 88.2821C358.666 87.6717 358.798 87.1099 359.061 86.5966C359.339 86.0833 359.713 85.6394 360.185 85.2648C360.657 84.8903 361.205 84.599 361.829 84.3909C362.453 84.1828 363.126 84.0787 363.847 84.0787C364.985 84.0787 365.991 84.2868 366.865 84.703C367.739 85.1053 368.46 85.7088 369.029 86.5134L367.489 88.3862C367.017 87.748 366.469 87.2694 365.845 86.9504C365.235 86.6174 364.569 86.451 363.847 86.451C363.348 86.451 362.911 86.5203 362.536 86.659C362.176 86.7978 361.891 86.9989 361.683 87.2625C361.475 87.5122 361.371 87.8174 361.371 88.1781C361.371 88.4555 361.434 88.7052 361.558 88.9272C361.683 89.1353 361.857 89.3226 362.079 89.489C362.315 89.6555 362.613 89.8012 362.973 89.926C363.334 90.0509 363.743 90.1619 364.201 90.259C364.964 90.4116 365.651 90.6197 366.261 90.8832C366.872 91.1329 367.392 91.4381 367.822 91.7988C368.252 92.1456 368.578 92.5479 368.8 93.0057C369.022 93.4497 369.133 93.9491 369.133 94.504C369.133 95.4612 368.904 96.2866 368.446 96.9802C368.002 97.66 367.371 98.1872 366.553 98.5617C365.734 98.9224 364.777 99.1027 363.681 99.1027ZM362.432 100.788L362.516 91.2578L364.409 91.9445L364.493 100.788H362.432ZM365.138 91.9445L363.244 91.2578L363.161 82.5805H365.221L365.138 91.9445ZM376.144 98.8947C375.409 98.8947 374.722 98.7629 374.084 98.4993C373.46 98.2357 372.912 97.875 372.44 97.4172C371.982 96.9456 371.622 96.3976 371.358 95.7733C371.094 95.1491 370.963 94.4624 370.963 93.7132C370.963 93.2971 371.011 92.8531 371.108 92.3815C371.219 91.9098 371.379 91.4104 371.587 90.8832C371.809 90.3422 372.065 89.7804 372.357 89.1977C372.648 88.6151 372.988 88.0047 373.376 87.3665L375.312 84.0787H377.892L377.975 84.2868L375.499 88.3654C375.097 89.0313 374.743 89.6625 374.438 90.259C374.132 90.8416 373.869 91.4035 373.647 91.9445C373.439 92.4717 373.265 92.9849 373.127 93.4843L372.565 91.5907C372.773 91.1468 373.03 90.7445 373.335 90.3838C373.64 90.0231 373.98 89.7179 374.354 89.4682C374.729 89.2185 375.117 89.0313 375.52 88.9064C375.936 88.7815 376.359 88.7191 376.789 88.7191C377.594 88.7191 378.336 88.9411 379.016 89.385C379.695 89.8151 380.236 90.3908 380.639 91.1121C381.055 91.8335 381.263 92.6242 381.263 93.4843C381.263 94.5248 381.041 95.4543 380.597 96.2727C380.167 97.0773 379.564 97.7155 378.787 98.1872C378.01 98.6588 377.129 98.8947 376.144 98.8947ZM376.165 96.5224C376.664 96.5224 377.108 96.4045 377.497 96.1687C377.899 95.9329 378.211 95.6069 378.433 95.1907C378.655 94.7606 378.766 94.2681 378.766 93.7132C378.766 93.2416 378.648 92.8046 378.412 92.4023C378.19 91.9861 377.885 91.6532 377.497 91.4035C377.108 91.1399 376.671 91.0081 376.186 91.0081C375.658 91.0081 375.187 91.1329 374.771 91.3827C374.368 91.6185 374.049 91.9445 373.813 92.3607C373.591 92.763 373.48 93.2138 373.48 93.7132C373.48 94.2404 373.591 94.719 373.813 95.1491C374.049 95.5652 374.368 95.8982 374.771 96.1479C375.173 96.3976 375.638 96.5224 376.165 96.5224ZM388.014 98.9571C387.085 98.9571 386.231 98.7698 385.455 98.3952C384.692 98.0068 384.081 97.4935 383.623 96.8554C383.166 96.2034 382.937 95.482 382.937 94.6913C382.937 94.2196 382.999 93.7826 383.124 93.3803C383.263 92.978 383.457 92.6173 383.707 92.2982C383.97 91.9792 384.282 91.6948 384.643 91.4451C385.018 91.1815 385.441 90.9526 385.912 90.7584L385.746 91.341C385.385 91.1884 385.052 91.0081 384.747 90.8C384.456 90.5919 384.199 90.3561 383.977 90.0925C383.769 89.8151 383.609 89.5237 383.498 89.2185C383.388 88.8995 383.332 88.5665 383.332 88.2197C383.332 87.4706 383.54 86.7978 383.956 86.2012C384.386 85.6047 384.955 85.1331 385.663 84.7862C386.37 84.4256 387.154 84.2452 388.014 84.2452C388.888 84.2452 389.679 84.4256 390.386 84.7862C391.094 85.1331 391.656 85.6047 392.072 86.2012C392.502 86.7978 392.717 87.4706 392.717 88.2197C392.717 88.5665 392.661 88.8995 392.55 89.2185C392.439 89.5237 392.28 89.8081 392.072 90.0717C391.878 90.3214 391.628 90.5572 391.323 90.7792C391.017 90.9873 390.664 91.1746 390.261 91.341L390.157 90.8416C390.601 90.9942 391.004 91.1954 391.364 91.4451C391.725 91.6948 392.037 91.9861 392.301 92.3191C392.564 92.652 392.765 93.0196 392.904 93.4219C393.057 93.8242 393.133 94.2473 393.133 94.6913C393.133 95.4959 392.904 96.2242 392.446 96.8762C391.989 97.5143 391.371 98.0207 390.594 98.3952C389.831 98.7698 388.971 98.9571 388.014 98.9571ZM388.014 96.6265C388.486 96.6265 388.909 96.5363 389.283 96.356C389.658 96.1756 389.949 95.9329 390.157 95.6277C390.379 95.3225 390.49 94.9687 390.49 94.5664C390.49 94.1364 390.379 93.7618 390.157 93.4427C389.949 93.1098 389.658 92.8531 389.283 92.6728C388.909 92.4786 388.486 92.3815 388.014 92.3815C387.556 92.3815 387.14 92.4786 386.765 92.6728C386.405 92.8531 386.113 93.1098 385.892 93.4427C385.67 93.7618 385.559 94.1364 385.559 94.5664C385.559 94.9548 385.67 95.3017 385.892 95.6069C386.113 95.912 386.405 96.1618 386.765 96.356C387.14 96.5363 387.556 96.6265 388.014 96.6265ZM388.014 90.0925C388.43 90.0925 388.798 90.0162 389.117 89.8636C389.45 89.711 389.706 89.5029 389.887 89.2393C390.067 88.9758 390.157 88.6706 390.157 88.3237C390.157 87.9631 390.067 87.6509 389.887 87.3874C389.706 87.1099 389.45 86.8949 389.117 86.7423C388.798 86.5758 388.43 86.4926 388.014 86.4926C387.612 86.4926 387.244 86.5758 386.911 86.7423C386.592 86.8949 386.342 87.1099 386.162 87.3874C385.982 87.6509 385.892 87.9631 385.892 88.3237C385.892 88.6706 385.982 88.9758 386.162 89.2393C386.342 89.5029 386.592 89.711 386.911 89.8636C387.244 90.0162 387.612 90.0925 388.014 90.0925ZM396.607 99.1236C396.107 99.1236 395.719 98.9779 395.441 98.6866C395.178 98.3952 395.046 97.986 395.046 97.4588C395.046 96.9733 395.185 96.5779 395.462 96.2727C395.754 95.9537 396.135 95.7941 396.607 95.7941C397.106 95.7941 397.488 95.9398 397.751 96.2311C398.029 96.5086 398.167 96.9178 398.167 97.4588C398.167 97.9444 398.022 98.3467 397.73 98.6658C397.453 98.971 397.078 99.1236 396.607 99.1236ZM405.644 99.1027C404.465 99.1027 403.452 98.8045 402.606 98.208C401.773 97.5976 401.128 96.7375 400.67 95.6277C400.226 94.504 400.004 93.1653 400.004 91.6116C400.004 90.0578 400.226 88.7261 400.67 87.6162C401.128 86.4926 401.773 85.6325 402.606 85.0359C403.452 84.4256 404.465 84.1204 405.644 84.1204C406.823 84.1204 407.836 84.4256 408.682 85.0359C409.528 85.6325 410.173 86.4926 410.617 87.6162C411.075 88.7261 411.304 90.0578 411.304 91.6116C411.304 93.1653 411.075 94.504 410.617 95.6277C410.173 96.7375 409.528 97.5976 408.682 98.208C407.836 98.8045 406.823 99.1027 405.644 99.1027ZM405.644 96.7305C406.615 96.7305 407.364 96.2866 407.891 95.3988C408.432 94.497 408.703 93.2346 408.703 91.6116C408.703 89.9746 408.432 88.7052 407.891 87.8035C407.364 86.9018 406.615 86.451 405.644 86.451C404.673 86.451 403.917 86.9018 403.376 87.8035C402.848 88.7052 402.585 89.9746 402.585 91.6116C402.585 93.2346 402.848 94.497 403.376 95.3988C403.917 96.2866 404.673 96.7305 405.644 96.7305ZM418.771 99.1027C417.592 99.1027 416.579 98.8045 415.733 98.208C414.901 97.5976 414.256 96.7375 413.798 95.6277C413.354 94.504 413.132 93.1653 413.132 91.6116C413.132 90.0578 413.354 88.7261 413.798 87.6162C414.256 86.4926 414.901 85.6325 415.733 85.0359C416.579 84.4256 417.592 84.1204 418.771 84.1204C419.95 84.1204 420.963 84.4256 421.809 85.0359C422.655 85.6325 423.301 86.4926 423.744 87.6162C424.202 88.7261 424.431 90.0578 424.431 91.6116C424.431 93.1653 424.202 94.504 423.744 95.6277C423.301 96.7375 422.655 97.5976 421.809 98.208C420.963 98.8045 419.95 99.1027 418.771 99.1027ZM418.771 96.7305C419.742 96.7305 420.491 96.2866 421.018 95.3988C421.56 94.497 421.83 93.2346 421.83 91.6116C421.83 89.9746 421.56 88.7052 421.018 87.8035C420.491 86.9018 419.742 86.451 418.771 86.451C417.8 86.451 417.044 86.9018 416.503 87.8035C415.976 88.7052 415.712 89.9746 415.712 91.6116C415.712 93.2346 415.976 94.497 416.503 95.3988C417.044 96.2866 417.8 96.7305 418.771 96.7305Z" fill="white"/>
</svg>
