<svg width="78" height="78" viewBox="0 0 78 78" fill="none" xmlns="http://www.w3.org/2000/svg">
<rect width="78" height="78" rx="39" fill="url(#paint0_linear_2_1988)" fill-opacity="0.05"/>
<rect x="10" y="10" width="58" height="58" rx="29" fill="url(#paint1_linear_2_1988)" fill-opacity="0.1"/>
<rect x="10.5" y="10.5" width="57" height="57" rx="28.5" stroke="url(#paint2_linear_2_1988)" stroke-opacity="0.2"/>
<g clip-path="url(#clip0_2_1988)">
<path d="M41.6923 30.8783C41.7253 30.9168 41.7308 30.9278 41.7363 30.9278C42.2807 31.0047 42.5337 31.4117 42.8251 31.8186C43.1605 32.2805 43.5619 32.7039 43.9908 33.0888C45.1181 34.1061 45.8109 35.3378 46.0419 36.839C46.4433 39.4674 44.9366 42.1674 42.4622 43.2176C38.7065 44.8123 34.5109 42.3873 34.0765 38.3292C33.8455 36.1681 34.6373 34.381 36.287 32.9733C36.8204 32.5169 37.2658 31.989 37.6342 31.3897C37.7002 31.2797 37.8212 31.1917 37.9366 31.1367C38.1236 31.0487 38.3326 30.9992 38.569 30.9168C38.492 30.8233 38.437 30.7573 38.3765 30.6913C38.0081 30.3119 37.6397 29.9215 37.2658 29.5531C37.1338 29.4211 37.0733 29.2836 37.0788 29.0967C37.0898 28.3158 37.0843 27.5405 37.0843 26.7597C37.0843 26.4462 37.4692 25.9458 37.7827 25.8853C38.1401 25.8139 38.5085 25.7754 38.8659 25.7039C38.9704 25.6819 39.0859 25.6159 39.1464 25.5334C39.6688 24.8296 40.5871 24.8241 41.104 25.5224C41.1754 25.6159 41.3129 25.6874 41.4284 25.7149C41.7583 25.7864 42.0937 25.8249 42.4292 25.8853C42.7646 25.9513 43.122 26.3857 43.122 26.7267C43.122 27.513 43.1165 28.3048 43.1275 29.0912C43.133 29.2946 43.067 29.4321 42.9296 29.5751C42.5117 29.9985 42.1102 30.4329 41.6923 30.8783ZM39.3828 33.9411C39.3663 34.0071 39.3498 34.0456 39.3553 34.0786C39.4268 34.447 39.2564 34.6065 38.9154 34.7439C38.2666 35.0134 37.9751 35.5578 37.9916 36.2561C38.0081 36.949 38.382 37.3779 39.0089 37.6033C39.2838 37.7023 39.5698 37.7738 39.8447 37.8673C40.0977 37.9498 40.3506 38.0322 40.5926 38.1312C40.796 38.2137 40.9115 38.3732 40.8895 38.6041C40.8675 38.8406 40.719 38.978 40.5101 39.0165C40.2956 39.0605 40.0647 39.099 39.8612 39.0495C39.4653 38.956 39.0859 38.7966 38.668 38.6536C38.481 38.9011 38.2666 39.1815 38.0081 39.5279C38.3985 39.6984 38.734 39.8743 39.0914 39.9953C39.2948 40.0613 39.3773 40.1493 39.3498 40.3582C39.3333 40.5067 39.3443 40.6607 39.3443 40.8311C39.6578 40.8311 39.9217 40.8311 40.1857 40.8311C40.5651 40.8311 40.5816 40.8311 40.5596 40.4407C40.5486 40.1988 40.6036 40.0668 40.8675 40.0338C41.005 40.0173 41.1424 39.9403 41.2689 39.8688C41.8518 39.5499 42.0937 39.0385 42.0827 38.3897C42.0717 37.7738 41.7638 37.3504 41.2139 37.1029C40.9665 36.993 40.7025 36.9105 40.4386 36.8225C40.1087 36.7125 39.7787 36.6135 39.4488 36.4926C39.2454 36.4156 39.1629 36.2506 39.1794 36.0307C39.1959 35.8217 39.3223 35.6787 39.5148 35.6458C39.7457 35.6073 39.9932 35.5853 40.2186 35.6238C40.4936 35.6732 40.752 35.7997 41.0435 35.8987C41.2249 35.6183 41.4119 35.3213 41.6318 34.9749C41.3789 34.8594 41.1644 34.7165 40.9335 34.678C40.6091 34.623 40.5101 34.4745 40.5486 34.1666C40.5596 34.0951 40.4606 33.9521 40.4001 33.9466C40.0702 33.9301 39.7238 33.9411 39.3828 33.9411Z" fill="#CAFF33"/>
<path d="M39.6795 52.989C38.5082 52.989 37.3315 52.956 36.1602 53C35.3739 53.0275 34.703 52.791 34.0707 52.3731C33.1744 51.7738 32.355 51.0919 31.6402 50.2781C30.5844 49.0738 29.5176 47.8696 28.4619 46.6654C27.5985 45.6756 27.989 44.2129 29.2207 43.8115C29.3637 43.762 29.5286 43.7455 29.6771 43.7455C30.6559 43.74 31.6402 43.7345 32.619 43.751C32.7564 43.751 32.9214 43.8225 33.0204 43.916C33.6912 44.5648 34.3511 45.2302 35.0055 45.8955C35.1374 46.0275 35.2584 46.055 35.4454 46.0275C35.8413 45.967 36.2482 45.912 36.6496 45.912C38.5027 45.901 40.3503 45.9065 42.2034 45.9065C42.8358 45.9065 43.3032 46.231 43.4681 46.7698C43.7211 47.5837 43.1272 48.348 42.2199 48.3535C40.9937 48.359 39.7619 48.3535 38.5357 48.3535C38.3158 48.3535 38.0958 48.348 37.8758 48.3535C37.4799 48.3645 37.2215 48.6174 37.216 48.9749C37.216 49.3378 37.4744 49.6127 37.8648 49.6127C39.8169 49.6182 41.769 49.6182 43.7211 49.6127C44.117 49.6127 44.4029 49.3928 44.6779 49.1288C45.9536 47.9026 47.2293 46.6764 48.5106 45.4556C49.033 44.9552 49.7258 44.9332 50.2207 45.3786C50.7541 45.8625 50.7651 46.6434 50.2262 47.1878C49.6598 47.7651 49.0824 48.3095 48.5106 48.8649C47.2458 50.0911 45.9811 51.3119 44.7219 52.5381C44.4139 52.835 44.073 52.989 43.6386 52.989C42.3189 52.9835 40.9992 52.989 39.6795 52.989Z" fill="#CAFF33"/>
<path d="M33.1358 29.751C33.6691 30.2844 34.2025 30.8177 34.7249 31.3401C34.4005 31.6646 34.0596 32.0055 33.7186 32.3409C33.2127 31.8185 32.6794 31.2687 32.168 30.7408C32.4704 30.4328 32.8113 30.0809 33.1358 29.751Z" fill="#CAFF33"/>
<path d="M47.0203 29.751C47.3448 30.0754 47.6802 30.4218 47.9936 30.7353C47.4712 31.2577 46.9269 31.802 46.399 32.3244C46.08 32.0055 45.7446 31.6591 45.4092 31.3236C45.9316 30.8122 46.4705 30.2844 47.0203 29.751Z" fill="#CAFF33"/>
<path d="M48.2851 38.4171C48.2851 37.9497 48.2796 37.5208 48.2906 37.0919C48.2906 37.0369 48.395 36.9379 48.45 36.9379C49.1209 36.9269 49.7862 36.9269 50.4571 36.9379C50.5121 36.9379 50.6166 37.0204 50.6166 37.0644C50.6276 37.5098 50.6221 37.9552 50.6221 38.4171C49.8357 38.4171 49.0769 38.4171 48.2851 38.4171Z" fill="#CAFF33"/>
<path d="M31.8546 38.4336C31.0958 38.4336 30.3864 38.4391 29.6716 38.4281C29.6166 38.4281 29.5286 38.3236 29.5231 38.2632C29.5121 37.8782 29.5066 37.4933 29.5231 37.1084C29.5231 37.0479 29.6331 36.9379 29.6936 36.9379C30.3534 36.9269 31.0133 36.9269 31.6731 36.9379C31.7336 36.9379 31.8436 37.0259 31.8436 37.0809C31.8601 37.5098 31.8546 37.9497 31.8546 38.4336Z" fill="#CAFF33"/>
</g>
<defs>
<linearGradient id="paint0_linear_2_1988" x1="39" y1="0" x2="39" y2="78" gradientUnits="userSpaceOnUse">
<stop stop-color="#CAFF33"/>
<stop offset="1" stop-color="#CAFF33" stop-opacity="0"/>
</linearGradient>
<linearGradient id="paint1_linear_2_1988" x1="39" y1="-28.4054" x2="39" y2="159.703" gradientUnits="userSpaceOnUse">
<stop stop-color="#CAFF33"/>
<stop offset="0.467671" stop-color="#CAFF33" stop-opacity="0"/>
</linearGradient>
<linearGradient id="paint2_linear_2_1988" x1="39" y1="-90.7162" x2="39" y2="120.514" gradientUnits="userSpaceOnUse">
<stop stop-color="#CAFF33"/>
<stop offset="0.716291" stop-color="#CAFF33" stop-opacity="0"/>
</linearGradient>
<clipPath id="clip0_2_1988">
<rect width="22.6277" height="28" fill="white" transform="translate(28 25)"/>
</clipPath>
</defs>
</svg>
